<svg xmlns="http://www.w3.org/2000/svg" viewBox="0 0 271.06 233.94"><defs><style>.cls-1{fill:#e8eddf;}.cls-2{fill:#1a1a1a;}</style></defs><g id="Camada_2" data-name="Camada 2"><g id="Pandas"><path class="cls-1" d="M182.6,123l21.65-14.44a4.64,4.64,0,1,0-5.15-7.73l-33.91,22.61a4.79,4.79,0,0,0,2.39,8.85h40.75a4.65,4.65,0,1,0,0-9.29Z"/><path class="cls-1" d="M103.45,120.62c-5.3-10.05-14-16.14-23.4-16.28h-.41a28.27,28.27,0,0,0-25.11,15.75A5.49,5.49,0,1,0,64.37,125a17.21,17.21,0,0,1,15.27-9.65h.24c7.61.11,12.23,7.33,13.86,10.42.11.2.18.34.22.4a5.49,5.49,0,0,0,9.53-5.45Z"/><path class="cls-1" d="M174.77,35.66A102.75,102.75,0,0,0,138.41,29a110,110,0,0,0-41.69,8.29c-1.41.57-2.81,1.16-4.21,1.79A126.56,126.56,0,0,0,54.66,65.55,129.68,129.68,0,0,0,32.59,95.32q-1.88,3.51-3.5,7.07c-6.05,13.39-9.25,27.39-9.25,40.51a69.59,69.59,0,0,0,8.9,34.91c5.64,9.89,13.92,18.54,24.61,25.69,21.19,14.19,51.4,22,85.06,22,34.33,0,63.21-7,83.53-20.35,21.13-13.85,31.85-33.65,31.85-58.87,0-16.92-4.93-34.89-13.78-51.55A133.11,133.11,0,0,0,220.36,67C207,52.58,191.47,42,174.77,35.66ZM42.53,128.85c0-9.74,3.4-21.36,9.16-31C58.29,86.78,68,78.33,79.23,78.33a22.94,22.94,0,0,1,5.72.73c18.39,4.66,32.75,30.81,32.75,49.79,0,20.9-17.43,25.18-38.47,25.18S42.53,149.75,42.53,128.85Zm121.05,49.53c-2.83,8.82-8.89,14.46-15.5,14.46h-.26a11.83,11.83,0,0,1-4.57-1c0,.34,0,.69,0,1,0,5.4-3.47,9.78-7.76,9.78s-7.76-4.38-7.76-9.78c0-.44,0-.87.07-1.29a12.19,12.19,0,0,1-5.4,1.29h-.26c-9.73-.22-14.46-12.35-14.66-12.87a2.54,2.54,0,0,1,4.74-1.8,7.33,7.33,0,0,0,.32.75c1,2.23,4.42,8.73,9.71,8.85h.16c4.14,0,8.12-3.88,10.34-10,.07-.17.13-.34.19-.52-8.29-1.85-14.79-11.43-14.79-16.78,0-5.93,7.76-10.74,17.34-10.74s17.34,4.81,17.34,10.74c0,5.46-6.36,15.33-14.82,16.88a2.74,2.74,0,0,1-.09,1l.26.6c1,2.24,4.43,8.73,9.71,8.85h.16c4.14,0,8.12-3.88,10.34-10q.18-.45.33-.93a2.53,2.53,0,0,1,4.82,1.55ZM187.08,154c-21,0-36.71-4.28-36.71-25.18S166,78.33,187.08,78.33s38.46,29.62,38.46,50.52S208.12,154,187.08,154Z"/><path class="cls-2" d="M271.06,49.08a49.09,49.09,0,0,0-93.32-21.3,110.92,110.92,0,0,0-39.33-7.27A118.93,118.93,0,0,0,94,29.24,49.08,49.08,0,1,0,24.9,91.79c-8.63,16.3-13.5,33.9-13.5,51.11,0,58.94,57,91,127,91s123.82-28.72,123.82-87.66c0-18.43-5.26-37.63-14.64-55.32A49.06,49.06,0,0,0,271.06,49.08ZM254.51,117c2.19,8.19,9.8,36.53-4.09,64.34-25.85,51.78-101,51.22-109.65,51.15C98.12,232.15,37.27,213,21.66,167c-5.68-16.72-3.45-31.32-2-39.83C26.82,83.49,66.1,31.26,126.85,25.61,191.14,19.63,241.73,69.33,254.51,117Z"/><path class="cls-2" d="M126.85,25.61C66.1,31.26,26.82,83.49,19.62,127.18c-1.41,8.51-3.64,23.11,2,39.83C37.27,213,98.12,232.15,140.77,232.46c8.67.07,83.8.63,109.65-51.15,13.89-27.81,6.28-56.15,4.09-64.34C241.73,69.33,191.14,19.63,126.85,25.61ZM253.79,146.28c0,25.22-10.72,45-31.85,58.87-20.32,13.31-49.2,20.35-83.53,20.35-33.66,0-63.87-7.81-85.06-22-10.69-7.15-19-15.8-24.61-25.69a69.59,69.59,0,0,1-8.9-34.91c0-13.12,3.2-27.12,9.25-40.51q1.62-3.56,3.5-7.07A129.68,129.68,0,0,1,54.66,65.55,126.56,126.56,0,0,1,92.51,39c1.4-.63,2.8-1.22,4.21-1.79A110,110,0,0,1,138.41,29a102.75,102.75,0,0,1,36.36,6.7C191.47,42,207,52.58,220.36,67A133.11,133.11,0,0,1,240,94.73C248.86,111.39,253.79,129.36,253.79,146.28Z"/><path class="cls-2" d="M162,175.2a2.53,2.53,0,0,0-3.19,1.63q-.15.48-.33.93c-2.22,6.13-6.2,10-10.34,10h-.16c-5.28-.12-8.69-6.61-9.71-8.85l-.26-.6a2.74,2.74,0,0,0,.09-1c8.46-1.55,14.82-11.42,14.82-16.88,0-5.93-7.76-10.74-17.34-10.74s-17.34,4.81-17.34,10.74c0,5.35,6.5,14.93,14.79,16.78-.06.18-.12.35-.19.52-2.22,6.13-6.2,10-10.34,10h-.16c-5.29-.12-8.7-6.62-9.71-8.85a7.33,7.33,0,0,1-.32-.75,2.54,2.54,0,0,0-4.74,1.8c.2.52,4.93,12.65,14.66,12.87h.26a12.19,12.19,0,0,0,5.4-1.29c0,.42-.07.85-.07,1.29,0,5.4,3.47,9.78,7.76,9.78s7.76-4.38,7.76-9.78c0-.35,0-.7,0-1a11.83,11.83,0,0,0,4.57,1h.26c6.61,0,12.67-5.64,15.5-14.46A2.52,2.52,0,0,0,162,175.2Z"/><path class="cls-2" d="M117.7,128.85c0-19-14.36-45.13-32.75-49.79a22.94,22.94,0,0,0-5.72-.73c-11.24,0-20.94,8.45-27.54,19.51-5.76,9.65-9.16,21.27-9.16,31,0,20.9,15.66,25.18,36.7,25.18S117.7,149.75,117.7,128.85Zm-16.22-.76a5.49,5.49,0,0,1-7.52-2c0-.06-.11-.2-.22-.4-1.63-3.09-6.25-10.31-13.86-10.42h-.24A17.21,17.21,0,0,0,64.37,125a5.49,5.49,0,1,1-9.84-4.88,28.27,28.27,0,0,1,25.11-15.75h.41c9.35.14,18.1,6.23,23.4,16.28l0,.07A5.49,5.49,0,0,1,101.48,128.09Z"/><path class="cls-2" d="M187.08,78.33c-21,0-36.71,29.62-36.71,50.52S166,154,187.08,154s38.46-4.28,38.46-25.18S208.12,78.33,187.08,78.33ZM213,127.65a4.65,4.65,0,0,1-4.65,4.65H167.58a4.87,4.87,0,0,1-2.39-8.85l33.91-22.61a4.64,4.64,0,1,1,5.15,7.73L182.6,123h25.73A4.65,4.65,0,0,1,213,127.65Z"/></g></g></svg>