<svg xmlns="http://www.w3.org/2000/svg" viewBox="0 0 488.56 259.86"><defs><style>.cls-1{fill:#7666ca;}.cls-2{fill:#29339b;}</style></defs><g id="Camada_2" data-name="Camada 2"><g id="Logos"><g id="Logo"><path class="cls-1" d="M177.59,144.43c-4.06-3.31-11.49-2.79-15.06-.29-4.16,2.92-4.94,8.25-8.83,9.17s-6.66-1.57-8.25,0c-1.77,1.74.12,6.2.43,6.95a15.63,15.63,0,0,0,7,7.38c6.91,3.85,14.1,1.66,15.2,1.31,1.89-.61,9.16-3.36,12-9.46C182.36,154.36,181.63,147.73,177.59,144.43Z"/><path class="cls-1" d="M337.27,24.54c.94-5.87-1.57-11.32-5.5-13.13C326.52,9,318,12.67,315.65,21.32h-.21l-47.35,95.1h-.6l-9.72-86.87,9-14.87a8.83,8.83,0,0,0,1-7,9.77,9.77,0,0,0-4.67-6.08A9.77,9.77,0,0,0,255.51.27a8.81,8.81,0,0,0-5.78,4.08L176.16,125.82a9.06,9.06,0,0,0-1.09,6.92,9.66,9.66,0,0,0,4.82,6.17,9.9,9.9,0,0,0,7.4,1.23,8.59,8.59,0,0,0,5.92-4l47.44-78.32L252,153.9a7.19,7.19,0,0,0,12.9,0l53.6-104.78,1.11-1.29c-6.8,34.59-11.05,69.81-11.39,102.24.18,11.33-.13,27.78,9.09,33.57a15.12,15.12,0,0,0,7.23,2.1c10.2.32,16.89-10.12,17.58-11.23A30.83,30.83,0,0,1,334,163.9c-1.08-2.4-2-5.36-3.37-20.46-.47-5.17-.7-7.75-.87-11a310.85,310.85,0,0,1,0-31.56C330.46,86,332.77,59,337.27,24.54Z"/><path class="cls-2" d="M115.83,145.32,22.42,92.48,117,39.29a12.09,12.09,0,0,0,3.89-3.17,7.46,7.46,0,0,0,1.3-4.61,8.48,8.48,0,0,0-2.59-5.91,7.57,7.57,0,0,0-6.34-2.45,8.46,8.46,0,0,0-3.17.72c-1.15.49-2.31,1-3.46,1.59L7.2,81.93A17.53,17.53,0,0,0,2,86.11,9,9,0,0,0,0,92a10.68,10.68,0,0,0,1.44,5.76,13.7,13.7,0,0,0,4.9,4.32l101.14,57.63,3.74,1.87a8.32,8.32,0,0,0,3.75,1,7.13,7.13,0,0,0,5.33-2.74,8.7,8.7,0,0,0,2.45-5.9,7.68,7.68,0,0,0-1.44-4.76A16.35,16.35,0,0,0,115.83,145.32Z"/><path class="cls-2" d="M486.54,86.11a17.53,17.53,0,0,0-5.18-4.18L382,25.46c-1.15-.58-2.31-1.1-3.46-1.59a8.5,8.5,0,0,0-3.17-.72A7.57,7.57,0,0,0,369,25.6a8.48,8.48,0,0,0-2.59,5.91,7.53,7.53,0,0,0,1.29,4.61,12.32,12.32,0,0,0,3.89,3.17l94.57,53.19-93.41,52.84a16.35,16.35,0,0,0-5.48,3.89,7.62,7.62,0,0,0-1.44,4.76,8.7,8.7,0,0,0,2.45,5.9,7.12,7.12,0,0,0,5.33,2.74,8.35,8.35,0,0,0,3.75-1l3.74-1.87L482.22,102.1a13.79,13.79,0,0,0,4.9-4.32A10.68,10.68,0,0,0,488.56,92,9,9,0,0,0,486.54,86.11Z"/><circle class="cls-1" cx="163.7" cy="69.86" r="2.48"/><path class="cls-1" d="M152.7,116.92h3.11v3.29a.58.58,0,0,0,.58.58.57.57,0,0,0,.41-.17.53.53,0,0,0,.16-.41v-3.29h3.14a.49.49,0,0,0,.36-.15.46.46,0,0,0,.15-.36.48.48,0,0,0-.15-.37.49.49,0,0,0-.36-.15H157v-3.27a.6.6,0,0,0-.15-.42.57.57,0,0,0-.42-.16.62.62,0,0,0-.41.16.58.58,0,0,0-.17.43v3.26H152.7a.57.57,0,0,0-.38.14.44.44,0,0,0-.16.37.46.46,0,0,0,.16.36A.55.55,0,0,0,152.7,116.92Z"/><path class="cls-1" d="M114.93,65.74a13.26,13.26,0,0,1-1.69-3.88,13.22,13.22,0,0,1-1.67,3.88,8,8,0,0,1-2.72,2.67,6,6,0,0,1,2.72,2.32,11.24,11.24,0,0,1,1.67,4.63,11.16,11.16,0,0,1,1.69-4.63,6.15,6.15,0,0,1,2.68-2.32A8.45,8.45,0,0,1,114.93,65.74Z"/><path class="cls-1" d="M141.34,52.43h3.12v3.29a.56.56,0,0,0,.57.58.57.57,0,0,0,.42-.17.57.57,0,0,0,.16-.41V52.43h3.13a.5.5,0,0,0,.37-.15.46.46,0,0,0,.15-.36.48.48,0,0,0-.15-.37.49.49,0,0,0-.37-.14h-3.13V48.13a.53.53,0,0,0-.16-.41.54.54,0,0,0-.42-.17.58.58,0,0,0-.57.59v3.27h-3.12a.54.54,0,0,0-.37.13.44.44,0,0,0-.16.37.46.46,0,0,0,.16.36A.49.49,0,0,0,141.34,52.43Z"/><path class="cls-1" d="M140.48,98.52a29.43,29.43,0,0,1-3.69-8.45,28.53,28.53,0,0,1-3.62,8.45,17.74,17.74,0,0,1-5.94,5.84,12.87,12.87,0,0,1,5.94,5,24.36,24.36,0,0,1,3.62,10.09,24.81,24.81,0,0,1,3.69-10.09,13.29,13.29,0,0,1,5.84-5A18.52,18.52,0,0,1,140.48,98.52Z"/><path class="cls-1" d="M169.65,29a1,1,0,0,0,1-1v-5a1,1,0,0,0-2,0v5A1,1,0,0,0,169.65,29Z"/><path class="cls-1" d="M169.67,35.44a1,1,0,0,0-1,1v5a1,1,0,0,0,2.05,0v-5A1,1,0,0,0,169.67,35.44Z"/><path class="cls-1" d="M159.77,32.85h4.95a1,1,0,0,0,0-2.05h-4.95a1,1,0,1,0,0,2.05Z"/><path class="cls-1" d="M174.62,32.85h4.95a1,1,0,0,0,0-2.05h-4.95a1,1,0,0,0,0,2.05Z"/><path class="cls-2" d="M43.19,192a1.79,1.79,0,0,1,.75.18,1.86,1.86,0,0,1,.65.49L58.84,214.1,57.45,214l14.31-21.33a1.43,1.43,0,0,1,1.4-.67,1.4,1.4,0,0,1,1,.44,1.47,1.47,0,0,1,.44,1.11v33.06a1.43,1.43,0,0,1-.49,1.08,1.63,1.63,0,0,1-1.16.47,1.55,1.55,0,0,1-1.14-.47,1.48,1.48,0,0,1-.46-1.08V196.74l.93.1L59.26,216.63a1.22,1.22,0,0,1-.49.49,1.45,1.45,0,0,1-1.4,0,1.59,1.59,0,0,1-.54-.49l-13.12-20,1-.67v30.69a1.54,1.54,0,0,1-.44,1.08,1.46,1.46,0,0,1-1.11.47,1.4,1.4,0,0,1-1.09-.47,1.6,1.6,0,0,1-.41-1.08V193.59a1.56,1.56,0,0,1,.44-1.06A1.41,1.41,0,0,1,43.19,192Z"/><path class="cls-2" d="M105.18,201.8a1.46,1.46,0,0,1,1.11.47,1.55,1.55,0,0,1,.44,1.13v23.25a1.48,1.48,0,0,1-.46,1.08,1.49,1.49,0,0,1-1.09.47,1.43,1.43,0,0,1-1.13-.47,1.56,1.56,0,0,1-.42-1.08V220.5l.88-.36a6.22,6.22,0,0,1-.8,2.92,9.92,9.92,0,0,1-2.19,2.79,11.89,11.89,0,0,1-3.28,2.07,10.35,10.35,0,0,1-4.06.8,11.29,11.29,0,0,1-6.28-1.81,12.48,12.48,0,0,1-4.34-5A15.61,15.61,0,0,1,82,214.87a15.11,15.11,0,0,1,1.6-7.1,12.4,12.4,0,0,1,4.34-4.83,11.57,11.57,0,0,1,10.31-1,10.85,10.85,0,0,1,3.38,2.11,10.17,10.17,0,0,1,2.27,3.08,8.24,8.24,0,0,1,.83,3.59l-1.09-.78V203.4a1.61,1.61,0,0,1,.42-1.13A1.43,1.43,0,0,1,105.18,201.8Zm-10.74,24a8.48,8.48,0,0,0,4.85-1.42,9.6,9.6,0,0,0,3.34-3.92,12.69,12.69,0,0,0,1.21-5.61,12.11,12.11,0,0,0-1.21-5.45,9.71,9.71,0,0,0-3.34-3.87,8.48,8.48,0,0,0-4.85-1.42,8.8,8.8,0,0,0-4.83,1.36,9.41,9.41,0,0,0-3.36,3.8A12.31,12.31,0,0,0,85,214.87a12.69,12.69,0,0,0,1.21,5.61,9.65,9.65,0,0,0,3.33,3.92A8.49,8.49,0,0,0,94.44,225.82Z"/><path class="cls-2" d="M116.29,197.87a2.37,2.37,0,0,1-1.63-.49,1.81,1.81,0,0,1-.54-1.42v-.51a1.72,1.72,0,0,1,.6-1.42,2.43,2.43,0,0,1,1.62-.5,2.2,2.2,0,0,1,1.53.5,1.81,1.81,0,0,1,.54,1.42V196a1.81,1.81,0,0,1-.54,1.42A2.28,2.28,0,0,1,116.29,197.87Zm1.55,28.78a1.48,1.48,0,0,1-.46,1.08,1.51,1.51,0,0,1-1.09.47,1.46,1.46,0,0,1-1.14-.47,1.6,1.6,0,0,1-.41-1.08V202.89a1.54,1.54,0,0,1,.44-1.09,1.57,1.57,0,0,1,2.22,0,1.54,1.54,0,0,1,.44,1.09Z"/><path class="cls-2" d="M138.35,201.18a9.67,9.67,0,0,1,5.45,1.37,7.64,7.64,0,0,1,2.94,3.72,14.22,14.22,0,0,1,.91,5.19v15.19a1.61,1.61,0,0,1-1.55,1.55,1.52,1.52,0,0,1-1.16-.47,1.5,1.5,0,0,1-.44-1.08v-15a10.33,10.33,0,0,0-.67-3.77,5.78,5.78,0,0,0-2.17-2.72,7,7,0,0,0-4-1,9.19,9.19,0,0,0-4.21,1,8.85,8.85,0,0,0-3.23,2.72,6.22,6.22,0,0,0-1.24,3.77v15a1.61,1.61,0,0,1-1.55,1.55,1.52,1.52,0,0,1-1.16-.47,1.5,1.5,0,0,1-.44-1.08V203.51a1.48,1.48,0,0,1,.46-1.09,1.55,1.55,0,0,1,1.14-.46,1.45,1.45,0,0,1,1.11.46,1.54,1.54,0,0,1,.44,1.09v4.34l-1.19,1.85a6.65,6.65,0,0,1,1.06-3.17,11.1,11.1,0,0,1,2.45-2.74,11.88,11.88,0,0,1,3.34-1.91A10.19,10.19,0,0,1,138.35,201.18Z"/><path class="cls-2" d="M177.4,201.8a1.49,1.49,0,0,1,1.12.47,1.58,1.58,0,0,1,.43,1.13v23.25a1.48,1.48,0,0,1-.46,1.08,1.49,1.49,0,0,1-1.09.47,1.43,1.43,0,0,1-1.13-.47,1.55,1.55,0,0,1-.41-1.08V220.5l.87-.36a6.22,6.22,0,0,1-.8,2.92,9.92,9.92,0,0,1-2.19,2.79,11.89,11.89,0,0,1-3.28,2.07,10.35,10.35,0,0,1-4.06.8,11.29,11.29,0,0,1-6.28-1.81,12.48,12.48,0,0,1-4.34-5,15.61,15.61,0,0,1-1.57-7.08,15.11,15.11,0,0,1,1.6-7.1,12.4,12.4,0,0,1,4.34-4.83,11.57,11.57,0,0,1,10.31-1,10.74,10.74,0,0,1,3.38,2.11,10.17,10.17,0,0,1,2.27,3.08,8.24,8.24,0,0,1,.83,3.59l-1.08-.78V203.4a1.61,1.61,0,0,1,.41-1.13A1.43,1.43,0,0,1,177.4,201.8Zm-10.74,24a8.53,8.53,0,0,0,4.86-1.42,9.65,9.65,0,0,0,3.33-3.92,12.69,12.69,0,0,0,1.21-5.61,12.11,12.11,0,0,0-1.21-5.45,9.77,9.77,0,0,0-3.33-3.87,8.53,8.53,0,0,0-4.86-1.42,8.8,8.8,0,0,0-4.83,1.36,9.41,9.41,0,0,0-3.36,3.8,12.31,12.31,0,0,0-1.21,5.58,12.69,12.69,0,0,0,1.21,5.61,9.65,9.65,0,0,0,3.33,3.92A8.51,8.51,0,0,0,166.66,225.82Z"/><path class="cls-2" d="M188.61,228.2a1.52,1.52,0,0,1-1.16-.47,1.54,1.54,0,0,1-.44-1.08V203.51a1.49,1.49,0,0,1,.47-1.09,1.54,1.54,0,0,1,1.13-.46,1.49,1.49,0,0,1,1.12.46,1.53,1.53,0,0,1,.43,1.09v7.74l-.77.16a11.69,11.69,0,0,1,.9-3.59,12.32,12.32,0,0,1,2-3.28,10.43,10.43,0,0,1,3.08-2.43,8.52,8.52,0,0,1,4-.93,4.44,4.44,0,0,1,1.81.39,1.3,1.3,0,0,1,.88,1.26,1.62,1.62,0,0,1-.41,1.19,1.35,1.35,0,0,1-1,.42,2.36,2.36,0,0,1-1-.26,3.4,3.4,0,0,0-1.42-.26,5.66,5.66,0,0,0-2.9.85,10.1,10.1,0,0,0-2.63,2.3,12,12,0,0,0-1.89,3.23,9.88,9.88,0,0,0-.7,3.59v12.76a1.48,1.48,0,0,1-.46,1.08A1.49,1.49,0,0,1,188.61,228.2Z"/><path class="cls-2" d="M228,201.8a1.46,1.46,0,0,1,1.11.47,1.59,1.59,0,0,1,.44,1.13v23.25a1.48,1.48,0,0,1-.46,1.08,1.51,1.51,0,0,1-1.09.47,1.46,1.46,0,0,1-1.14-.47,1.6,1.6,0,0,1-.41-1.08V220.5l.88-.36a6.34,6.34,0,0,1-.8,2.92,10.15,10.15,0,0,1-2.2,2.79,11.74,11.74,0,0,1-3.28,2.07,10.34,10.34,0,0,1-4.05.8,11.24,11.24,0,0,1-6.28-1.81,12.48,12.48,0,0,1-4.34-5,15.61,15.61,0,0,1-1.58-7.08,15.11,15.11,0,0,1,1.61-7.1,12.32,12.32,0,0,1,4.34-4.83,11.55,11.55,0,0,1,10.3-1,10.9,10.9,0,0,1,3.39,2.11,10.17,10.17,0,0,1,2.27,3.08,8.24,8.24,0,0,1,.83,3.59l-1.09-.78V203.4a1.65,1.65,0,0,1,.41-1.13A1.46,1.46,0,0,1,228,201.8Zm-10.74,24a8.48,8.48,0,0,0,4.85-1.42,9.65,9.65,0,0,0,3.33-3.92,12.69,12.69,0,0,0,1.22-5.61,12.12,12.12,0,0,0-1.22-5.45,9.77,9.77,0,0,0-3.33-3.87,8.48,8.48,0,0,0-4.85-1.42,8.81,8.81,0,0,0-4.84,1.36,9.46,9.46,0,0,0-3.35,3.8,12.32,12.32,0,0,0-1.22,5.58,12.69,12.69,0,0,0,1.22,5.61,9.65,9.65,0,0,0,3.33,3.92A8.49,8.49,0,0,0,217.24,225.82Z"/><path class="cls-2" d="M267.76,192a9.39,9.39,0,0,1,6.79,2.35,8.59,8.59,0,0,1,2.46,6.53,9.49,9.49,0,0,1-.93,4.16,7.79,7.79,0,0,1-2.77,3.15,8.84,8.84,0,0,1-4.47,1.37l-.25-1a13.16,13.16,0,0,1,3.74.54,9.54,9.54,0,0,1,3.31,1.73,8.73,8.73,0,0,1,2.35,3,9.78,9.78,0,0,1,.88,4.32,10.88,10.88,0,0,1-.91,4.62,8.49,8.49,0,0,1-2.45,3.15,10,10,0,0,1-3.49,1.76,15,15,0,0,1-4,.54h-13.9a1.46,1.46,0,0,1-1.11-.47,1.54,1.54,0,0,1-.44-1.08V193.59a1.54,1.54,0,0,1,.44-1.09,1.45,1.45,0,0,1,1.11-.46Zm-.47,3.1H255.21l.62-1v14.63l-.57-.78h12.09a6.19,6.19,0,0,0,6.35-6.82,5.88,5.88,0,0,0-1.68-4.42A6.53,6.53,0,0,0,267.29,195.14Zm.42,16H255.57l.26-.36v14.83l-.31-.47h12.24a9,9,0,0,0,5.58-1.68q2.22-1.68,2.22-5.34a7,7,0,0,0-1.09-4.14,5.81,5.81,0,0,0-2.89-2.19A11.43,11.43,0,0,0,267.71,211.15Z"/><path class="cls-2" d="M307,201.8a1.46,1.46,0,0,1,1.11.47,1.59,1.59,0,0,1,.44,1.13v23.25a1.48,1.48,0,0,1-.46,1.08,1.51,1.51,0,0,1-1.09.47,1.46,1.46,0,0,1-1.14-.47,1.6,1.6,0,0,1-.41-1.08V220.5l.88-.36a6.34,6.34,0,0,1-.8,2.92,10.15,10.15,0,0,1-2.2,2.79,11.74,11.74,0,0,1-3.28,2.07,10.31,10.31,0,0,1-4.05.8,11.24,11.24,0,0,1-6.28-1.81,12.48,12.48,0,0,1-4.34-5,15.61,15.61,0,0,1-1.57-7.08,15.11,15.11,0,0,1,1.6-7.1,12.32,12.32,0,0,1,4.34-4.83,11.55,11.55,0,0,1,10.3-1,10.9,10.9,0,0,1,3.39,2.11,10.17,10.17,0,0,1,2.27,3.08,8.24,8.24,0,0,1,.83,3.59l-1.09-.78V203.4a1.65,1.65,0,0,1,.41-1.13A1.46,1.46,0,0,1,307,201.8Zm-10.74,24a8.48,8.48,0,0,0,4.85-1.42,9.65,9.65,0,0,0,3.33-3.92,12.69,12.69,0,0,0,1.22-5.61,12.12,12.12,0,0,0-1.22-5.45,9.77,9.77,0,0,0-3.33-3.87,8.48,8.48,0,0,0-4.85-1.42,8.75,8.75,0,0,0-4.83,1.36,9.41,9.41,0,0,0-3.36,3.8,12.32,12.32,0,0,0-1.22,5.58,12.69,12.69,0,0,0,1.22,5.61,9.65,9.65,0,0,0,3.33,3.92A8.49,8.49,0,0,0,296.28,225.82Z"/><path class="cls-2" d="M318.23,228.2a1.52,1.52,0,0,1-1.16-.47,1.5,1.5,0,0,1-.44-1.08V203.51a1.48,1.48,0,0,1,.46-1.09,1.55,1.55,0,0,1,1.14-.46,1.45,1.45,0,0,1,1.11.46,1.54,1.54,0,0,1,.44,1.09v7.74l-.77.16a11.69,11.69,0,0,1,.9-3.59,12.32,12.32,0,0,1,2-3.28,10.38,10.38,0,0,1,3.07-2.43,8.56,8.56,0,0,1,4-.93,4.44,4.44,0,0,1,1.81.39,1.31,1.31,0,0,1,.87,1.26,1.58,1.58,0,0,1-.41,1.19,1.33,1.33,0,0,1-1,.42,2.4,2.4,0,0,1-1-.26,3.33,3.33,0,0,0-1.42-.26,5.63,5.63,0,0,0-2.89.85,10.14,10.14,0,0,0-2.64,2.3,11.69,11.69,0,0,0-1.88,3.23,9.67,9.67,0,0,0-.7,3.59v12.76a1.48,1.48,0,0,1-.46,1.08A1.51,1.51,0,0,1,318.23,228.2Z"/><path class="cls-2" d="M349.12,201.18a11.21,11.21,0,0,1,6.23,1.76,12.48,12.48,0,0,1,4.31,4.83,15.11,15.11,0,0,1,1.6,7.1,15.37,15.37,0,0,1-1.6,7.08,12.72,12.72,0,0,1-4.34,5,10.92,10.92,0,0,1-6.14,1.81,10.3,10.3,0,0,1-3.44-.57,11.87,11.87,0,0,1-5.35-3.77,11.75,11.75,0,0,1-1.65-2.74l.93-.72v5.83a1.61,1.61,0,0,1-.44,1.14,1.45,1.45,0,0,1-1.11.46,1.57,1.57,0,0,1-1.6-1.6V191.57a1.5,1.5,0,0,1,.44-1.08,1.52,1.52,0,0,1,1.16-.47,1.46,1.46,0,0,1,1.11.47,1.54,1.54,0,0,1,.44,1.08v17.31l-.72-.42a9.51,9.51,0,0,1,1.52-2.91,11.14,11.14,0,0,1,2.35-2.3,10.75,10.75,0,0,1,2.95-1.53A10.36,10.36,0,0,1,349.12,201.18Zm-.26,2.95a8.85,8.85,0,0,0-4.9,1.36,9.42,9.42,0,0,0-3.33,3.8,12.32,12.32,0,0,0-1.22,5.58,12.69,12.69,0,0,0,1.22,5.61A9.58,9.58,0,0,0,344,224.4a8.57,8.57,0,0,0,4.9,1.42,8.34,8.34,0,0,0,4.84-1.44,10.07,10.07,0,0,0,3.3-4,12.55,12.55,0,0,0,1.22-5.55,12.32,12.32,0,0,0-1.22-5.58,9.58,9.58,0,0,0-3.3-3.8A8.67,8.67,0,0,0,348.86,204.13Z"/><path class="cls-2" d="M392.47,215a14.49,14.49,0,0,1-1.71,7.06,13.06,13.06,0,0,1-18,4.9,12.8,12.8,0,0,1-4.7-4.9,15.29,15.29,0,0,1,0-14.13,13.12,13.12,0,0,1,4.7-4.91,13.21,13.21,0,0,1,13.35,0,12.91,12.91,0,0,1,4.65,4.91A14.37,14.37,0,0,1,392.47,215Zm-3.1,0a11.86,11.86,0,0,0-1.29-5.6,9.83,9.83,0,0,0-3.54-3.85,10.07,10.07,0,0,0-10.21,0,10,10,0,0,0-3.59,3.85,11.63,11.63,0,0,0-1.31,5.6,11.44,11.44,0,0,0,1.31,5.58,10.16,10.16,0,0,0,3.59,3.85,9.89,9.89,0,0,0,10.21,0,10,10,0,0,0,3.54-3.85A11.66,11.66,0,0,0,389.37,215Z"/><path class="cls-2" d="M397.58,224a2,2,0,0,1-.39-1.21,1.16,1.16,0,0,1,.65-1,1.19,1.19,0,0,1,1-.32,1.65,1.65,0,0,1,1,.52,10.93,10.93,0,0,0,3.39,2.92,9.52,9.52,0,0,0,4.72,1.11,8.66,8.66,0,0,0,2.87-.49,5.67,5.67,0,0,0,2.35-1.5,3.62,3.62,0,0,0,.93-2.56,3.51,3.51,0,0,0-.93-2.55,6.78,6.78,0,0,0-2.4-1.55,22.81,22.81,0,0,0-3.18-1c-1.17-.31-2.3-.66-3.38-1.06a12,12,0,0,1-2.92-1.5,6.86,6.86,0,0,1-2-2.19,6.17,6.17,0,0,1-.75-3.15,6.54,6.54,0,0,1,1.16-3.83,7.73,7.73,0,0,1,3.23-2.58,11.09,11.09,0,0,1,4.6-.93,12.69,12.69,0,0,1,2.84.34,11.22,11.22,0,0,1,2.94,1.11,8.67,8.67,0,0,1,2.59,2.12,1.44,1.44,0,0,1,.46,1.05,1.59,1.59,0,0,1-.51,1.12,1.47,1.47,0,0,1-1,.28,1.22,1.22,0,0,1-.9-.44,7.85,7.85,0,0,0-3-2.09,9.52,9.52,0,0,0-3.67-.7,8.37,8.37,0,0,0-2.81.47,5.28,5.28,0,0,0-2.2,1.44,3.77,3.77,0,0,0-.88,2.58,3.64,3.64,0,0,0,1.06,2.43,7.51,7.51,0,0,0,2.53,1.55,29.55,29.55,0,0,0,3.54,1.14,31,31,0,0,1,3.18,1A11.05,11.05,0,0,1,414.4,216a6.54,6.54,0,0,1,1.86,2.15,6.83,6.83,0,0,1,.69,3.25,6.31,6.31,0,0,1-1.26,3.93,8.09,8.09,0,0,1-3.39,2.53,12.26,12.26,0,0,1-4.7.88,14,14,0,0,1-5.4-1.09A11.54,11.54,0,0,1,397.58,224Z"/><path class="cls-2" d="M445.37,201.8a1.47,1.47,0,0,1,1.11.47,1.59,1.59,0,0,1,.44,1.13v23.25a1.61,1.61,0,0,1-1.55,1.55,1.45,1.45,0,0,1-1.14-.47,1.55,1.55,0,0,1-.41-1.08V220.5l.88-.36a6.34,6.34,0,0,1-.8,2.92,10.15,10.15,0,0,1-2.2,2.79,11.74,11.74,0,0,1-3.28,2.07,10.35,10.35,0,0,1-4.06.8,11.23,11.23,0,0,1-6.27-1.81,12.41,12.41,0,0,1-4.34-5,15.61,15.61,0,0,1-1.58-7.08,15.23,15.23,0,0,1,1.6-7.1,12.48,12.48,0,0,1,4.34-4.83,11.18,11.18,0,0,1,6.15-1.76,11,11,0,0,1,4.16.78,10.74,10.74,0,0,1,3.38,2.11,10.2,10.2,0,0,1,2.28,3.08,8.23,8.23,0,0,1,.82,3.59l-1.08-.78V203.4a1.61,1.61,0,0,1,.41-1.13A1.45,1.45,0,0,1,445.37,201.8Zm-10.75,24a8.49,8.49,0,0,0,4.86-1.42,9.65,9.65,0,0,0,3.33-3.92,12.69,12.69,0,0,0,1.21-5.61,12.11,12.11,0,0,0-1.21-5.45,9.77,9.77,0,0,0-3.33-3.87,8.49,8.49,0,0,0-4.86-1.42,8.8,8.8,0,0,0-4.83,1.36,9.41,9.41,0,0,0-3.36,3.8,12.31,12.31,0,0,0-1.21,5.58,12.69,12.69,0,0,0,1.21,5.61,9.6,9.6,0,0,0,3.34,3.92A8.48,8.48,0,0,0,434.62,225.82Z"/><path class="cls-2" d="M123.73,239.06a.67.67,0,0,1,.69.69v9.57a6.05,6.05,0,0,1-.81,3.1,6.21,6.21,0,0,1-2.17,2.21,5.9,5.9,0,0,1-3.07.82,6,6,0,0,1-3.09-.82,6.16,6.16,0,0,1-2.18-2.21,6.05,6.05,0,0,1-.81-3.1v-9.57a.69.69,0,0,1,.19-.49.76.76,0,0,1,.55-.2.69.69,0,0,1,.48.2.67.67,0,0,1,.21.49v9.57a4.51,4.51,0,0,0,.64,2.4,4.83,4.83,0,0,0,1.69,1.7,4.54,4.54,0,0,0,4.65,0,4.88,4.88,0,0,0,1.71-1.7,4.52,4.52,0,0,0,.65-2.4v-9.57a.72.72,0,0,1,.18-.49A.66.66,0,0,1,123.73,239.06Z"/><path class="cls-2" d="M130.2,254.52a.72.72,0,0,1-.24.51.7.7,0,0,1-.5.21.66.66,0,0,1-.53-.21.76.76,0,0,1-.18-.51V239.77a.73.73,0,0,1,.2-.51.77.77,0,0,1,.54-.2.71.71,0,0,1,.49.2.67.67,0,0,1,.22.51Z"/><path class="cls-2" d="M133.18,258.24a.6.6,0,0,1-.46-.19.68.68,0,0,1-.18-.48.75.75,0,0,1,.09-.34l10.05-19.91a1.18,1.18,0,0,1,.34-.44.83.83,0,0,1,.43-.11.62.62,0,0,1,.4.17.59.59,0,0,1,.2.45,1.06,1.06,0,0,1-.09.42L133.9,257.73a2,2,0,0,1-.32.39A.65.65,0,0,1,133.18,258.24Z"/><path class="cls-2" d="M158,239.06a.69.69,0,0,1,.5.2.7.7,0,0,1,.2.49v9.57a6.05,6.05,0,0,1-.81,3.1,6.24,6.24,0,0,1-2.18,2.21,5.87,5.87,0,0,1-3.07.82,6,6,0,0,1-3.09-.82,6.24,6.24,0,0,1-2.18-2.21,6.05,6.05,0,0,1-.81-3.1v-9.57a.7.7,0,0,1,.2-.49.73.73,0,0,1,.54-.2.68.68,0,0,1,.69.69v9.57a4.61,4.61,0,0,0,.64,2.4,4.77,4.77,0,0,0,1.7,1.7,4.37,4.37,0,0,0,2.31.64,4.43,4.43,0,0,0,2.34-.64,5.06,5.06,0,0,0,1.71-1.7,4.51,4.51,0,0,0,.64-2.4v-9.57a.69.69,0,0,1,.19-.49A.63.63,0,0,1,158,239.06Z"/><path class="cls-2" d="M162.15,239a.68.68,0,0,1,.58.3l11,14.91a.71.71,0,0,1,.16.41.65.65,0,0,1-.23.52.77.77,0,0,1-.49.2.67.67,0,0,1-.58-.3l-11-14.93a.61.61,0,0,1-.16-.42.63.63,0,0,1,.22-.5A.73.73,0,0,1,162.15,239Zm-.07,16.34a.54.54,0,0,1-.46-.21.69.69,0,0,1-.17-.41.9.9,0,0,1,.17-.47l5.31-7.23.74,1.15-5,6.85A.64.64,0,0,1,162.08,255.33ZM173.2,239a.67.67,0,0,1,.47.17.57.57,0,0,1,.2.43.77.77,0,0,1-.16.44l-5.32,7.23-.76-1.13,5-6.84A.69.69,0,0,1,173.2,239Z"/><path class="cls-2" d="M192.48,238.13a.64.64,0,0,1,.49.21.69.69,0,0,1,.2.48v15.72a.72.72,0,0,1-.69.7A.64.64,0,0,1,192,255a.69.69,0,0,1-.19-.49v-2.75l.4-.32a3.06,3.06,0,0,1-.35,1.37,4.46,4.46,0,0,1-1,1.3,5.55,5.55,0,0,1-1.48,1,4.62,4.62,0,0,1-1.82.37,5,5,0,0,1-2.78-.81,5.65,5.65,0,0,1-2-2.2,7.39,7.39,0,0,1,0-6.32,5.66,5.66,0,0,1,1.94-2.19,4.9,4.9,0,0,1,2.76-.8,4.83,4.83,0,0,1,1.82.34,5.27,5.27,0,0,1,1.52.95,4.65,4.65,0,0,1,1,1.38,3.62,3.62,0,0,1,.38,1.6l-.49-.34v-8.26a.68.68,0,0,1,.19-.48A.64.64,0,0,1,192.48,238.13Zm-4.81,16a3.8,3.8,0,0,0,2.18-.63,4.35,4.35,0,0,0,1.48-1.74,5.93,5.93,0,0,0,0-5,4.32,4.32,0,0,0-1.49-1.72,4.09,4.09,0,0,0-4.33,0,4.36,4.36,0,0,0-1.51,1.72,5.56,5.56,0,0,0-.54,2.49,5.62,5.62,0,0,0,.54,2.49,4.45,4.45,0,0,0,1.51,1.75A3.85,3.85,0,0,0,187.67,254.17Z"/><path class="cls-2" d="M202.14,255.47a6.44,6.44,0,0,1-3.15-.76,5.49,5.49,0,0,1-2.12-2.13,6.41,6.41,0,0,1-.76-3.19,6.72,6.72,0,0,1,.77-3.35,5.69,5.69,0,0,1,2-2.14,5,5,0,0,1,2.62-.75,5.59,5.59,0,0,1,2,.36,5.06,5.06,0,0,1,1.71,1.06,5.21,5.21,0,0,1,1.2,1.72,6.35,6.35,0,0,1,.5,2.36.68.68,0,0,1-.23.47.7.7,0,0,1-.49.2h-9.27l-.27-1.25h9.1l-.3.28v-.46a3.39,3.39,0,0,0-.71-1.84,4.08,4.08,0,0,0-1.45-1.16,4,4,0,0,0-1.77-.4,3.9,3.9,0,0,0-1.42.28,3.68,3.68,0,0,0-1.31.86,4.35,4.35,0,0,0-1,1.51,5.61,5.61,0,0,0-.37,2.16,5.43,5.43,0,0,0,.55,2.47,4.27,4.27,0,0,0,1.61,1.76,4.68,4.68,0,0,0,2.51.64,4.07,4.07,0,0,0,1.44-.23,4.23,4.23,0,0,0,1.13-.61,4.17,4.17,0,0,0,.82-.8.8.8,0,0,1,.49-.21.59.59,0,0,1,.43.19.61.61,0,0,1,.17.42.65.65,0,0,1-.23.48,6.13,6.13,0,0,1-1.8,1.45A5,5,0,0,1,202.14,255.47Z"/><path class="cls-2" d="M209.19,253.36a.82.82,0,0,1-.17-.54.51.51,0,0,1,.28-.43.57.57,0,0,1,.43-.13.7.7,0,0,1,.45.23,4.87,4.87,0,0,0,1.52,1.3,4.25,4.25,0,0,0,2.11.5,3.89,3.89,0,0,0,1.29-.22,2.6,2.6,0,0,0,1.05-.67,1.64,1.64,0,0,0,.41-1.14,1.62,1.62,0,0,0-.41-1.15,3.09,3.09,0,0,0-1.08-.69,9.45,9.45,0,0,0-1.42-.45c-.52-.14-1-.3-1.51-.48a5.39,5.39,0,0,1-1.31-.67,2.93,2.93,0,0,1-.91-1,2.73,2.73,0,0,1-.34-1.41,2.93,2.93,0,0,1,.52-1.71,3.51,3.51,0,0,1,1.45-1.16,5,5,0,0,1,2-.41,5.93,5.93,0,0,1,1.28.15,5.23,5.23,0,0,1,1.31.49,4.18,4.18,0,0,1,1.16,1,.66.66,0,0,1,.21.48.7.7,0,0,1-.23.49.61.61,0,0,1-.43.13.56.56,0,0,1-.41-.2,3.65,3.65,0,0,0-1.31-.93,4.29,4.29,0,0,0-1.65-.31,3.94,3.94,0,0,0-1.25.2,2.35,2.35,0,0,0-1,.65,1.68,1.68,0,0,0-.39,1.16,1.61,1.61,0,0,0,.47,1.08,3.51,3.51,0,0,0,1.14.7,16.41,16.41,0,0,0,1.58.51,14.72,14.72,0,0,1,1.42.43,4.87,4.87,0,0,1,1.2.64,2.78,2.78,0,0,1,.84,1,3.13,3.13,0,0,1,.31,1.46,2.78,2.78,0,0,1-.57,1.75,3.63,3.63,0,0,1-1.51,1.14,5.54,5.54,0,0,1-2.11.39,6.11,6.11,0,0,1-2.41-.49A5.11,5.11,0,0,1,209.19,253.36Z"/><path class="cls-2" d="M221.35,241.67a1.08,1.08,0,0,1-.73-.22.83.83,0,0,1-.24-.64v-.23a.77.77,0,0,1,.26-.63,1.1,1.1,0,0,1,.73-.22,1,1,0,0,1,.68.22.8.8,0,0,1,.25.63v.23a.83.83,0,0,1-.25.64A1,1,0,0,1,221.35,241.67Zm.69,12.87a.72.72,0,0,1-.69.7.64.64,0,0,1-.51-.21.73.73,0,0,1-.19-.49V243.91a.67.67,0,0,1,.2-.48.66.66,0,0,1,.5-.21.7.7,0,0,1,.69.69Z"/><path class="cls-2" d="M230.57,243.15a5,5,0,0,1,1.9.36,5.56,5.56,0,0,1,1.53.92,4.71,4.71,0,0,1,1,1.2,2.41,2.41,0,0,1,.37,1.22l-.37-.56v-2.15a.73.73,0,0,1,.2-.51.65.65,0,0,1,.5-.2.62.62,0,0,1,.5.2.72.72,0,0,1,.19.51v10a5.91,5.91,0,0,1-.76,3.1,5,5,0,0,1-2.07,1.93,6.49,6.49,0,0,1-3,.66,7.38,7.38,0,0,1-1.7-.21,6.66,6.66,0,0,1-1.53-.53c-.42-.22-.66-.44-.7-.67a.58.58,0,0,1-.18-.4.47.47,0,0,1,.2-.34.4.4,0,0,1,.47,0l.78.33.61.21a7.7,7.7,0,0,0,1,.24,6,6,0,0,0,1.14.11,4,4,0,0,0,4.37-4.3v-2.22l.26.07a3.82,3.82,0,0,1-.7,1.43,4.46,4.46,0,0,1-1.12,1,4.86,4.86,0,0,1-1.38.65,5.4,5.4,0,0,1-4.37-.59,5.74,5.74,0,0,1-2-2.2,7.12,7.12,0,0,1,0-6.32,5.75,5.75,0,0,1,2-2.19A5.24,5.24,0,0,1,230.57,243.15Zm.16,1.32a4.19,4.19,0,0,0-2.27.62,4.37,4.37,0,0,0-1.58,1.72,5.43,5.43,0,0,0-.56,2.49,5.49,5.49,0,0,0,.56,2.49,4.46,4.46,0,0,0,1.58,1.75,4.19,4.19,0,0,0,2.27.63,4.12,4.12,0,0,0,2.25-.62,4.5,4.5,0,0,0,1.57-1.72,5.42,5.42,0,0,0,.58-2.53,5.33,5.33,0,0,0-.58-2.52,4.37,4.37,0,0,0-1.57-1.7A4.2,4.2,0,0,0,230.73,244.47Z"/><path class="cls-2" d="M245.64,243.15a4.3,4.3,0,0,1,2.44.61,3.44,3.44,0,0,1,1.32,1.66,6.48,6.48,0,0,1,.4,2.33v6.79a.7.7,0,0,1-.2.49.68.68,0,0,1-.49.21.67.67,0,0,1-.52-.21.7.7,0,0,1-.2-.49v-6.72a4.58,4.58,0,0,0-.3-1.69,2.52,2.52,0,0,0-1-1.21,3.13,3.13,0,0,0-1.78-.45,4.1,4.1,0,0,0-1.88.45,3.91,3.91,0,0,0-1.45,1.21,2.8,2.8,0,0,0-.55,1.69v6.72a.71.71,0,0,1-1.21.49.66.66,0,0,1-.2-.49V244.19a.67.67,0,0,1,.21-.49.68.68,0,0,1,.51-.21.64.64,0,0,1,.49.21.7.7,0,0,1,.2.49v1.94l-.53.83a3.07,3.07,0,0,1,.47-1.42,5.05,5.05,0,0,1,1.1-1.22,5.27,5.27,0,0,1,1.49-.86A4.59,4.59,0,0,1,245.64,243.15Z"/><path class="cls-2" d="M261.87,250.06a2.9,2.9,0,0,1-1.48-.39,3,3,0,0,1-1.07-1.07,2.95,2.95,0,0,1,0-3,3,3,0,0,1,1.07-1.07,3,3,0,0,1,3,0,3.19,3.19,0,0,1,1.09,1.07,2.95,2.95,0,0,1,0,3,3.19,3.19,0,0,1-1.09,1.07A2.9,2.9,0,0,1,261.87,250.06Z"/><path class="cls-2" d="M275,255.24a.68.68,0,0,1-.71-.7V239.75a.67.67,0,0,1,.69-.69h8.41a.69.69,0,0,1,.49.19.66.66,0,0,1,.21.5.62.62,0,0,1-.21.47.7.7,0,0,1-.49.2h-7.79l.1-.14v6.15l-.12-.21h6.77a.7.7,0,0,1,.49.2.66.66,0,0,1,.21.5.62.62,0,0,1-.21.47.7.7,0,0,1-.49.2h-6.82l.17-.21v7.16a.7.7,0,0,1-.2.49A.66.66,0,0,1,275,255.24Z"/><path class="cls-2" d="M287.53,255.24A.67.67,0,0,1,287,255a.7.7,0,0,1-.2-.49V244.19a.67.67,0,0,1,.21-.49.69.69,0,0,1,.51-.21.66.66,0,0,1,.5.21.69.69,0,0,1,.19.49v3.47l-.34.06a5.15,5.15,0,0,1,.4-1.6,5.63,5.63,0,0,1,.91-1.47,4.72,4.72,0,0,1,1.38-1.09,3.9,3.9,0,0,1,1.79-.41,2.06,2.06,0,0,1,.81.17.6.6,0,0,1,.39.57.72.72,0,0,1-.18.53.62.62,0,0,1-.44.18,1,1,0,0,1-.45-.11,1.46,1.46,0,0,0-.64-.12,2.55,2.55,0,0,0-1.29.38,4.56,4.56,0,0,0-1.18,1,5.27,5.27,0,0,0-.85,1.45,4.5,4.5,0,0,0-.31,1.6v5.71a.67.67,0,0,1-.21.49A.64.64,0,0,1,287.53,255.24Z"/><path class="cls-2" d="M306.23,249.32a6.44,6.44,0,0,1-.76,3.15,5.65,5.65,0,0,1-2.08,2.2,5.79,5.79,0,0,1-8.08-2.2,6.79,6.79,0,0,1,0-6.32,5.89,5.89,0,0,1,2.1-2.19,5.92,5.92,0,0,1,6,0,5.84,5.84,0,0,1,2.08,2.19A6.46,6.46,0,0,1,306.23,249.32Zm-1.39,0a5.37,5.37,0,0,0-.57-2.51,4.47,4.47,0,0,0-1.59-1.72,4.24,4.24,0,0,0-2.3-.62,4.18,4.18,0,0,0-2.26.62,4.45,4.45,0,0,0-1.61,1.72,5.61,5.61,0,0,0,0,5,4.59,4.59,0,0,0,1.61,1.72,4.18,4.18,0,0,0,2.26.63,4.25,4.25,0,0,0,2.3-.63,4.62,4.62,0,0,0,1.59-1.72A5.33,5.33,0,0,0,304.84,249.32Z"/><path class="cls-2" d="M314.76,243.15a4.3,4.3,0,0,1,2.44.61,3.44,3.44,0,0,1,1.32,1.66,6.48,6.48,0,0,1,.4,2.33v6.79a.71.71,0,0,1-1.21.49.7.7,0,0,1-.2-.49v-6.72a4.58,4.58,0,0,0-.3-1.69,2.52,2.52,0,0,0-1-1.21,3.15,3.15,0,0,0-1.78-.45,4.1,4.1,0,0,0-1.88.45,3.91,3.91,0,0,0-1.45,1.21,2.8,2.8,0,0,0-.55,1.69v6.72a.72.72,0,0,1-.7.7.68.68,0,0,1-.71-.7V244.19a.7.7,0,0,1,.71-.7.66.66,0,0,1,.5.21.7.7,0,0,1,.2.49v1.94L310,247a3,3,0,0,1,.48-1.42,4.86,4.86,0,0,1,1.1-1.22,5.13,5.13,0,0,1,1.49-.86A4.55,4.55,0,0,1,314.76,243.15Z"/><path class="cls-2" d="M321.79,243.47h5.38a.63.63,0,0,1,.47.2.67.67,0,0,1,.18.47.62.62,0,0,1-.18.46.63.63,0,0,1-.47.19h-5.38a.66.66,0,0,1-.48-.2.64.64,0,0,1-.19-.47.59.59,0,0,1,.19-.46A.65.65,0,0,1,321.79,243.47Zm2.38-3.26a.67.67,0,0,1,.5.21.69.69,0,0,1,.19.49v11.6a2.07,2.07,0,0,0,.18,1,.82.82,0,0,0,.45.43,1.52,1.52,0,0,0,.55.1.93.93,0,0,0,.34-.06,1.14,1.14,0,0,1,.33,0,.46.46,0,0,1,.36.16.59.59,0,0,1,.15.41.64.64,0,0,1-.37.55,1.77,1.77,0,0,1-.88.22,5.82,5.82,0,0,1-.62,0,2.21,2.21,0,0,1-.86-.25,1.81,1.81,0,0,1-.74-.78,3.4,3.4,0,0,1-.3-1.59V240.91a.67.67,0,0,1,.21-.49A.69.69,0,0,1,324.17,240.21Z"/><path class="cls-2" d="M330.57,248.7a.67.67,0,0,1-.5-.21.72.72,0,0,1-.19-.51.66.66,0,0,1,.19-.48.69.69,0,0,1,.5-.19h5a.65.65,0,0,1,.49.21.72.72,0,0,1,.2.5.63.63,0,0,1-.2.49.71.71,0,0,1-.49.19Z"/><path class="cls-2" d="M340.44,239.06h8.46a.72.72,0,0,1,.51.19.66.66,0,0,1,.21.5.6.6,0,0,1-.21.48.72.72,0,0,1-.51.19H341l.23-.39v6.49l-.25-.3h6.91a.69.69,0,0,1,.51.21.67.67,0,0,1,.21.49.6.6,0,0,1-.21.48.76.76,0,0,1-.51.19H341l.2-.23V254l-.11-.14h7.81a.69.69,0,0,1,.51.21.67.67,0,0,1,.21.49.6.6,0,0,1-.21.48.72.72,0,0,1-.51.19h-8.46a.67.67,0,0,1-.5-.21.69.69,0,0,1-.19-.49V239.75a.69.69,0,0,1,.19-.49A.7.7,0,0,1,340.44,239.06Z"/><path class="cls-2" d="M358.1,243.15a4.3,4.3,0,0,1,2.44.61,3.44,3.44,0,0,1,1.32,1.66,6.48,6.48,0,0,1,.4,2.33v6.79a.7.7,0,0,1-.2.49.68.68,0,0,1-.49.21.67.67,0,0,1-.52-.21.7.7,0,0,1-.2-.49v-6.72a4.58,4.58,0,0,0-.3-1.69,2.52,2.52,0,0,0-1-1.21,3.13,3.13,0,0,0-1.78-.45,4.1,4.1,0,0,0-1.88.45,3.91,3.91,0,0,0-1.45,1.21,2.8,2.8,0,0,0-.55,1.69v6.72a.71.71,0,0,1-1.21.49.66.66,0,0,1-.2-.49V244.19a.67.67,0,0,1,.21-.49.68.68,0,0,1,.51-.21.64.64,0,0,1,.49.21.7.7,0,0,1,.2.49v1.94l-.53.83a3.07,3.07,0,0,1,.47-1.42,5.05,5.05,0,0,1,1.1-1.22,5.27,5.27,0,0,1,1.49-.86A4.59,4.59,0,0,1,358.1,243.15Z"/><path class="cls-2" d="M375.58,238.13a.67.67,0,0,1,.5.21.68.68,0,0,1,.19.48v15.72a.72.72,0,0,1-.69.7.64.64,0,0,1-.51-.21.72.72,0,0,1-.18-.49v-2.75l.39-.32a3.06,3.06,0,0,1-.35,1.37,4.46,4.46,0,0,1-1,1.3,5.55,5.55,0,0,1-1.48,1,4.59,4.59,0,0,1-1.82.37,5,5,0,0,1-2.78-.81,5.55,5.55,0,0,1-1.95-2.2,7.29,7.29,0,0,1,0-6.32,5.51,5.51,0,0,1,1.94-2.19,5.11,5.11,0,0,1,4.58-.46,5.36,5.36,0,0,1,1.51.95,4.65,4.65,0,0,1,1,1.38,3.62,3.62,0,0,1,.38,1.6l-.48-.34v-8.26a.72.72,0,0,1,.18-.48A.64.64,0,0,1,375.58,238.13Zm-4.81,16a3.8,3.8,0,0,0,2.18-.63,4.35,4.35,0,0,0,1.48-1.74,5.93,5.93,0,0,0,0-5,4.24,4.24,0,0,0-1.49-1.72,4.09,4.09,0,0,0-4.33,0,4.26,4.26,0,0,0-1.5,1.72,5.43,5.43,0,0,0-.55,2.49,5.49,5.49,0,0,0,.55,2.49,4.35,4.35,0,0,0,1.5,1.75A3.85,3.85,0,0,0,370.77,254.17Z"/></g></g></g></svg>