<svg width="489" height="260" viewBox="0 0 489 260" fill="none" xmlns="http://www.w3.org/2000/svg">
<g clip-path="url(#clip0_52_161)">
<path d="M177.59 144.43C173.53 141.12 166.1 141.64 162.53 144.14C158.37 147.06 157.59 152.39 153.7 153.31C149.81 154.23 147.04 151.74 145.45 153.31C143.68 155.05 145.57 159.51 145.88 160.26C147.325 163.432 149.789 166.029 152.88 167.64C159.79 171.49 166.98 169.3 168.08 168.95C169.97 168.34 177.24 165.59 180.08 159.49C182.36 154.36 181.63 147.73 177.59 144.43Z" fill="#E8EDDF"/>
<path d="M337.27 24.54C338.21 18.67 335.7 13.22 331.77 11.41C326.52 9 318 12.67 315.65 21.32H315.44L268.09 116.42H267.49L257.77 29.55L266.77 14.68C267.41 13.6451 267.829 12.4891 268.001 11.2845C268.173 10.0799 268.095 8.85272 267.77 7.68C267.442 6.40404 266.859 5.20766 266.056 4.1628C265.254 3.11794 264.248 2.2462 263.1 1.6C261.991 0.875341 260.746 0.383752 259.442 0.155113C258.137 -0.0735257 256.799 -0.0344387 255.51 0.269998C254.317 0.513685 253.187 1.00206 252.192 1.7043C251.198 2.40654 250.359 3.3074 249.73 4.35L176.16 125.82C175.528 126.843 175.106 127.982 174.919 129.17C174.732 130.358 174.783 131.572 175.07 132.74C175.398 134.048 175.997 135.273 176.827 136.335C177.657 137.398 178.7 138.275 179.89 138.91C182.1 140.275 184.757 140.717 187.29 140.14C188.506 139.937 189.664 139.475 190.686 138.785C191.707 138.094 192.568 137.192 193.21 136.14L240.65 57.82L252 153.9C252.593 155.104 253.512 156.119 254.652 156.828C255.792 157.537 257.107 157.913 258.45 157.913C259.793 157.913 261.108 157.537 262.248 156.828C263.388 156.119 264.307 155.104 264.9 153.9L318.5 49.12L319.61 47.83C312.81 82.42 308.56 117.64 308.22 150.07C308.4 161.4 308.09 177.85 317.31 183.64C319.504 184.938 321.991 185.661 324.54 185.74C334.74 186.06 341.43 175.62 342.12 174.51C338.67 171.609 335.899 167.988 334 163.9C332.92 161.5 332 158.54 330.63 143.44C330.16 138.27 329.93 135.69 329.76 132.44C329.226 121.927 329.226 111.393 329.76 100.88C330.46 86 332.77 59 337.27 24.54Z" fill="#E8EDDF"/>
<path d="M115.83 145.32L22.42 92.48L117 39.29C118.504 38.517 119.829 37.4371 120.89 36.12C121.818 34.768 122.275 33.1478 122.19 31.51C122.139 29.2757 121.208 27.1517 119.6 25.6C118.807 24.7257 117.821 24.0488 116.72 23.6234C115.62 23.198 114.435 23.0359 113.26 23.15C112.167 23.1828 111.09 23.4273 110.09 23.87C108.94 24.36 107.78 24.87 106.63 25.46L7.19999 81.93C5.21505 82.9776 3.44975 84.3966 1.99999 86.11C0.654474 87.7732 -0.0545703 89.8614 -1.13072e-05 92C-0.0740739 94.0175 0.425222 96.0147 1.43999 97.76C2.7011 99.574 4.38222 101.056 6.33999 102.08L107.48 159.71L111.22 161.58C112.374 162.204 113.659 162.547 114.97 162.58C116.004 162.537 117.016 162.27 117.937 161.797C118.857 161.324 119.664 160.656 120.3 159.84C121.835 158.255 122.711 156.146 122.75 153.94C122.811 152.238 122.305 150.563 121.31 149.18C119.77 147.529 117.904 146.214 115.83 145.32Z" fill="#7666CA"/>
<path d="M486.54 86.11C485.096 84.3986 483.338 82.9797 481.36 81.93L382 25.46C380.85 24.88 379.69 24.36 378.54 23.87C377.54 23.4283 376.463 23.1838 375.37 23.15C374.191 23.0311 373 23.1908 371.893 23.6164C370.787 24.0419 369.796 24.7214 369 25.6C367.392 27.1517 366.461 29.2757 366.41 31.51C366.327 33.1461 366.78 34.7646 367.7 36.12C368.766 37.4323 370.09 38.5114 371.59 39.29L466.16 92.48L372.75 145.32C370.674 146.223 368.808 147.548 367.27 149.21C366.271 150.591 365.764 152.267 365.83 153.97C365.869 156.176 366.745 158.285 368.28 159.87C368.916 160.687 369.722 161.355 370.643 161.828C371.563 162.301 372.576 162.568 373.61 162.61C374.921 162.576 376.206 162.233 377.36 161.61L381.1 159.74L482.22 102.1C484.176 101.073 485.856 99.5917 487.12 97.78C488.138 96.0289 488.638 94.0242 488.56 92C488.609 89.8588 487.893 87.7704 486.54 86.11Z" fill="#7666CA"/>
<path d="M163.7 72.34C165.07 72.34 166.18 71.2297 166.18 69.86C166.18 68.4903 165.07 67.38 163.7 67.38C162.33 67.38 161.22 68.4903 161.22 69.86C161.22 71.2297 162.33 72.34 163.7 72.34Z" fill="#E8EDDF"/>
<path d="M152.7 116.92H155.81V120.21C155.81 120.364 155.871 120.511 155.98 120.62C156.089 120.729 156.236 120.79 156.39 120.79C156.466 120.791 156.542 120.776 156.612 120.747C156.683 120.717 156.746 120.674 156.8 120.62C156.854 120.567 156.897 120.503 156.925 120.432C156.952 120.362 156.964 120.286 156.96 120.21V116.92H160.1C160.167 116.921 160.234 116.908 160.296 116.882C160.357 116.857 160.413 116.818 160.46 116.77C160.51 116.725 160.549 116.669 160.575 116.607C160.601 116.544 160.613 116.477 160.61 116.41C160.613 116.341 160.601 116.273 160.575 116.209C160.549 116.145 160.51 116.087 160.46 116.04C160.413 115.992 160.357 115.953 160.296 115.928C160.234 115.902 160.167 115.889 160.1 115.89H157V112.62C157.006 112.466 156.952 112.316 156.85 112.2C156.794 112.146 156.729 112.104 156.656 112.077C156.584 112.049 156.507 112.037 156.43 112.04C156.278 112.041 156.132 112.098 156.02 112.2C155.964 112.256 155.919 112.323 155.89 112.397C155.861 112.471 155.847 112.551 155.85 112.63V115.89H152.7C152.56 115.889 152.425 115.938 152.32 116.03C152.266 116.074 152.223 116.131 152.195 116.196C152.167 116.26 152.155 116.33 152.16 116.4C152.158 116.468 152.172 116.536 152.199 116.598C152.227 116.66 152.268 116.716 152.32 116.76C152.421 116.861 152.557 116.918 152.7 116.92Z" fill="#E8EDDF"/>
<path d="M114.93 65.74C114.163 64.5455 113.592 63.2355 113.24 61.86C112.895 63.2345 112.331 64.5445 111.57 65.74C110.892 66.8361 109.959 67.7521 108.85 68.41C109.971 68.889 110.92 69.6982 111.57 70.73C112.462 72.131 113.032 73.7122 113.24 75.36C113.451 73.71 114.029 72.1281 114.93 70.73C115.576 69.7104 116.508 68.9035 117.61 68.41C116.526 67.734 115.61 66.8211 114.93 65.74Z" fill="#E8EDDF"/>
<path d="M141.34 52.43H144.46V55.72C144.457 55.7961 144.47 55.8719 144.498 55.9428C144.525 56.0138 144.567 56.0783 144.62 56.1326C144.674 56.1869 144.737 56.2297 144.808 56.2585C144.878 56.2873 144.954 56.3014 145.03 56.3C145.108 56.3019 145.185 56.2878 145.258 56.2585C145.33 56.2293 145.395 56.1856 145.45 56.13C145.502 56.0757 145.544 56.0115 145.571 55.9411C145.599 55.8707 145.612 55.7955 145.61 55.72V52.43H148.74C148.809 52.4318 148.877 52.4193 148.941 52.3935C149.004 52.3677 149.062 52.3291 149.11 52.28C149.16 52.2347 149.199 52.1789 149.225 52.1167C149.251 52.0545 149.263 51.9873 149.26 51.92C149.263 51.8512 149.251 51.7825 149.225 51.7187C149.199 51.6548 149.16 51.5973 149.11 51.55C149.061 51.5022 149.003 51.4651 148.94 51.441C148.876 51.4169 148.808 51.4063 148.74 51.41H145.61V48.13C145.614 48.0542 145.602 47.9784 145.575 47.9076C145.547 47.8369 145.504 47.7729 145.45 47.72C145.396 47.6629 145.331 47.6182 145.259 47.5888C145.186 47.5595 145.108 47.5462 145.03 47.55C144.954 47.5513 144.879 47.5676 144.809 47.598C144.739 47.6283 144.676 47.6721 144.623 47.7269C144.57 47.7817 144.528 47.8464 144.5 47.9173C144.472 47.9882 144.459 48.0638 144.46 48.14V51.41H141.34C141.205 51.4054 141.073 51.4518 140.97 51.54C140.916 51.5845 140.873 51.6412 140.845 51.7056C140.817 51.77 140.805 51.84 140.81 51.91C140.808 51.9781 140.822 52.0457 140.849 52.108C140.877 52.1703 140.918 52.2256 140.97 52.27C141.017 52.3214 141.074 52.3622 141.138 52.3898C141.202 52.4174 141.27 52.4311 141.34 52.43Z" fill="#E8EDDF"/>
<path d="M140.48 98.52C138.814 95.9147 137.568 93.0631 136.79 90.07C136.048 93.0638 134.825 95.9175 133.17 98.52C131.682 100.911 129.645 102.912 127.23 104.36C129.677 105.375 131.752 107.122 133.17 109.36C135.111 112.413 136.347 115.86 136.79 119.45C137.268 115.858 138.528 112.413 140.48 109.36C141.892 107.154 143.923 105.415 146.32 104.36C143.959 102.878 141.962 100.881 140.48 98.52Z" fill="#E8EDDF"/>
<path d="M169.65 29C169.915 29 170.17 28.8946 170.357 28.7071C170.545 28.5196 170.65 28.2652 170.65 28V23C170.65 22.7348 170.545 22.4804 170.357 22.2929C170.17 22.1054 169.915 22 169.65 22C169.385 22 169.13 22.1054 168.943 22.2929C168.755 22.4804 168.65 22.7348 168.65 23V28C168.65 28.2652 168.755 28.5196 168.943 28.7071C169.13 28.8946 169.385 29 169.65 29Z" fill="#E8EDDF"/>
<path d="M169.67 35.44C169.405 35.44 169.15 35.5454 168.963 35.7329C168.775 35.9204 168.67 36.1748 168.67 36.44V41.44C168.67 41.7118 168.778 41.9726 168.97 42.1648C169.162 42.357 169.423 42.465 169.695 42.465C169.967 42.465 170.227 42.357 170.42 42.1648C170.612 41.9726 170.72 41.7118 170.72 41.44V36.44C170.72 36.3044 170.693 36.1701 170.639 36.0454C170.586 35.9207 170.508 35.8082 170.41 35.7146C170.311 35.6211 170.195 35.5485 170.068 35.5013C169.941 35.4541 169.805 35.4332 169.67 35.44Z" fill="#E8EDDF"/>
<path d="M159.77 32.85H164.72C164.992 32.85 165.253 32.742 165.445 32.5498C165.637 32.3575 165.745 32.0968 165.745 31.825C165.745 31.5531 165.637 31.2924 165.445 31.1002C165.253 30.908 164.992 30.8 164.72 30.8H159.77C159.498 30.8 159.237 30.908 159.045 31.1002C158.853 31.2924 158.745 31.5531 158.745 31.825C158.745 32.0968 158.853 32.3575 159.045 32.5498C159.237 32.742 159.498 32.85 159.77 32.85Z" fill="#E8EDDF"/>
<path d="M174.62 32.85H179.57C179.842 32.85 180.103 32.742 180.295 32.5498C180.487 32.3575 180.595 32.0968 180.595 31.825C180.595 31.5531 180.487 31.2924 180.295 31.1002C180.103 30.908 179.842 30.8 179.57 30.8H174.62C174.348 30.8 174.087 30.908 173.895 31.1002C173.703 31.2924 173.595 31.5531 173.595 31.825C173.595 32.0968 173.703 32.3575 173.895 32.5498C174.087 32.742 174.348 32.85 174.62 32.85Z" fill="#E8EDDF"/>
<path d="M43.1899 192C43.4501 192.005 43.706 192.066 43.9399 192.18C44.1901 192.293 44.4121 192.461 44.5899 192.67L58.8399 214.1L57.4499 214L71.7599 192.67C71.904 192.435 72.1128 192.247 72.3611 192.129C72.6095 192.01 72.8869 191.965 73.16 192C73.3476 192.003 73.5328 192.043 73.7046 192.118C73.8764 192.194 74.0313 192.303 74.16 192.44C74.3069 192.584 74.4219 192.757 74.4977 192.948C74.5735 193.139 74.6083 193.344 74.5999 193.55V226.61C74.6003 226.815 74.5567 227.017 74.4722 227.203C74.3877 227.389 74.2641 227.555 74.1099 227.69C73.9571 227.841 73.7759 227.96 73.5769 228.041C73.3778 228.121 73.1647 228.162 72.9499 228.16C72.7379 228.164 72.5273 228.124 72.3312 228.043C72.1351 227.962 71.9577 227.842 71.8099 227.69C71.6637 227.551 71.5474 227.383 71.4683 227.198C71.3892 227.012 71.3489 226.812 71.3499 226.61V196.74L72.2799 196.84L59.2599 216.63C59.1474 216.837 58.9772 217.007 58.7699 217.12C58.5556 217.238 58.3147 217.3 58.0699 217.3C57.8251 217.3 57.5843 217.238 57.3699 217.12C57.1544 217.001 56.9696 216.833 56.8299 216.63L43.7099 196.63L44.7099 195.96V226.65C44.7105 227.054 44.5525 227.442 44.2699 227.73C44.1291 227.883 43.9571 228.004 43.7657 228.085C43.5743 228.166 43.3678 228.205 43.1599 228.2C42.9549 228.206 42.751 228.167 42.5627 228.086C42.3743 228.005 42.2061 227.883 42.0699 227.73C41.8036 227.434 41.6573 227.048 41.6599 226.65V193.59C41.6666 193.194 41.8239 192.815 42.0999 192.53C42.2308 192.366 42.3965 192.234 42.5851 192.142C42.7737 192.05 42.9803 192.002 43.1899 192Z" fill="#E8EDDF"/>
<path d="M105.18 201.8C105.388 201.795 105.594 201.834 105.786 201.915C105.977 201.996 106.149 202.117 106.29 202.27C106.436 202.419 106.549 202.596 106.625 202.79C106.701 202.984 106.736 203.192 106.73 203.4V226.65C106.731 226.852 106.691 227.052 106.612 227.238C106.533 227.423 106.416 227.591 106.27 227.73C106.13 227.879 105.961 227.997 105.774 228.078C105.586 228.159 105.384 228.201 105.18 228.2C104.969 228.21 104.758 228.173 104.562 228.092C104.367 228.011 104.192 227.887 104.05 227.73C103.777 227.437 103.626 227.051 103.63 226.65V220.5L104.51 220.14C104.488 221.164 104.213 222.167 103.71 223.06C103.154 224.114 102.412 225.059 101.52 225.85C100.547 226.715 99.4392 227.414 98.24 227.92C96.9543 228.457 95.5734 228.729 94.18 228.72C91.954 228.749 89.7691 228.119 87.9 226.91C86.0295 225.664 84.5301 223.937 83.56 221.91C82.4977 219.717 81.9634 217.306 82 214.87C81.9469 212.408 82.4961 209.971 83.6 207.77C84.5919 205.803 86.09 204.136 87.94 202.94C89.4626 201.984 91.1872 201.395 92.9768 201.222C94.7665 201.048 96.5719 201.294 98.25 201.94C99.4972 202.429 100.643 203.144 101.63 204.05C102.575 204.924 103.345 205.969 103.9 207.13C104.444 208.249 104.728 209.476 104.73 210.72L103.64 209.94V203.4C103.628 202.983 103.779 202.578 104.06 202.27C104.201 202.114 104.374 201.991 104.568 201.91C104.761 201.829 104.97 201.791 105.18 201.8ZM94.44 225.8C96.1634 225.831 97.8552 225.335 99.29 224.38C100.74 223.402 101.894 222.046 102.63 220.46C103.456 218.707 103.87 216.788 103.84 214.85C103.867 212.964 103.452 211.098 102.63 209.4C101.882 207.835 100.729 206.499 99.29 205.53C97.8552 204.575 96.1634 204.079 94.44 204.11C92.7321 204.085 91.0539 204.558 89.61 205.47C88.1633 206.405 87.001 207.72 86.25 209.27C85.398 211.012 84.9697 212.931 85 214.87C84.9696 216.808 85.3835 218.727 86.21 220.48C86.9449 222.064 88.0958 223.419 89.54 224.4C90.9891 225.364 92.6997 225.86 94.44 225.82V225.8Z" fill="#E8EDDF"/>
<path d="M116.29 197.87C115.705 197.914 115.124 197.74 114.66 197.38C114.472 197.197 114.327 196.975 114.234 196.729C114.141 196.484 114.102 196.222 114.12 195.96V195.45C114.103 195.183 114.148 194.916 114.252 194.669C114.356 194.423 114.516 194.204 114.72 194.03C115.182 193.674 115.757 193.497 116.34 193.53C116.895 193.497 117.441 193.676 117.87 194.03C118.058 194.213 118.203 194.435 118.296 194.681C118.389 194.926 118.428 195.188 118.41 195.45V196C118.428 196.262 118.389 196.524 118.296 196.769C118.203 197.015 118.058 197.237 117.87 197.42C117.418 197.761 116.854 197.922 116.29 197.87ZM117.84 226.65C117.841 226.852 117.801 227.052 117.722 227.238C117.643 227.423 117.526 227.591 117.38 227.73C117.239 227.878 117.07 227.996 116.883 228.077C116.696 228.157 116.494 228.199 116.29 228.2C116.077 228.21 115.865 228.172 115.668 228.091C115.471 228.01 115.294 227.887 115.15 227.73C114.884 227.434 114.737 227.049 114.74 226.65V202.89C114.737 202.483 114.895 202.091 115.18 201.8C115.474 201.506 115.874 201.34 116.29 201.34C116.706 201.34 117.106 201.506 117.4 201.8C117.685 202.091 117.843 202.483 117.84 202.89V226.65Z" fill="#E8EDDF"/>
<path d="M138.35 201.18C140.262 201.087 142.159 201.564 143.8 202.55C145.15 203.447 146.179 204.75 146.74 206.27C147.364 207.928 147.673 209.688 147.65 211.46V226.65C147.635 227.056 147.467 227.442 147.179 227.73C146.892 228.017 146.506 228.185 146.1 228.2C145.884 228.208 145.669 228.171 145.469 228.09C145.269 228.009 145.089 227.886 144.94 227.73C144.798 227.588 144.686 227.42 144.611 227.234C144.535 227.049 144.497 226.85 144.5 226.65V211.65C144.514 210.363 144.286 209.084 143.83 207.88C143.403 206.772 142.645 205.822 141.66 205.16C140.457 204.433 139.063 204.084 137.66 204.16C136.197 204.153 134.754 204.496 133.45 205.16C132.17 205.793 131.061 206.726 130.22 207.88C129.406 208.968 128.971 210.292 128.98 211.65V226.65C128.965 227.056 128.797 227.442 128.509 227.73C128.222 228.017 127.836 228.185 127.43 228.2C127.214 228.208 126.999 228.171 126.799 228.09C126.599 228.009 126.419 227.886 126.27 227.73C126.128 227.588 126.016 227.42 125.941 227.234C125.865 227.049 125.827 226.85 125.83 226.65V203.51C125.828 203.306 125.867 203.105 125.946 202.917C126.025 202.729 126.142 202.56 126.29 202.42C126.439 202.27 126.616 202.151 126.812 202.072C127.008 201.993 127.219 201.955 127.43 201.96C127.637 201.953 127.843 201.99 128.035 202.07C128.226 202.149 128.399 202.268 128.54 202.42C128.825 202.711 128.983 203.103 128.98 203.51V207.85L127.79 209.7C127.868 208.57 128.232 207.479 128.85 206.53C129.509 205.487 130.337 204.561 131.3 203.79C132.302 202.976 133.43 202.331 134.64 201.88C135.822 201.418 137.08 201.18 138.35 201.18Z" fill="#E8EDDF"/>
<path d="M177.4 201.8C177.609 201.795 177.817 201.835 178.01 201.916C178.203 201.997 178.377 202.117 178.52 202.27C178.807 202.575 178.962 202.981 178.95 203.4V226.65C178.951 226.852 178.911 227.052 178.832 227.238C178.752 227.423 178.636 227.591 178.49 227.73C178.35 227.879 178.181 227.997 177.994 228.078C177.806 228.159 177.604 228.201 177.4 228.2C177.189 228.21 176.978 228.173 176.782 228.092C176.587 228.011 176.412 227.887 176.27 227.73C175.999 227.436 175.852 227.049 175.86 226.65V220.5L176.73 220.14C176.708 221.164 176.433 222.167 175.93 223.06C175.373 224.114 174.632 225.059 173.74 225.85C172.767 226.715 171.659 227.414 170.46 227.92C169.174 228.457 167.793 228.729 166.4 228.72C164.174 228.749 161.989 228.119 160.12 226.91C158.249 225.664 156.75 223.937 155.78 221.91C154.708 219.706 154.17 217.281 154.21 214.83C154.157 212.368 154.706 209.931 155.81 207.73C156.802 205.763 158.3 204.096 160.15 202.9C161.673 201.944 163.397 201.355 165.187 201.182C166.976 201.008 168.782 201.254 170.46 201.9C171.708 202.386 172.855 203.102 173.84 204.01C174.785 204.884 175.555 205.929 176.11 207.09C176.654 208.209 176.938 209.436 176.94 210.68L175.86 209.9V203.4C175.846 202.985 175.993 202.58 176.27 202.27C176.412 202.113 176.587 201.989 176.782 201.908C176.978 201.827 177.189 201.79 177.4 201.8ZM166.66 225.8C168.386 225.829 170.081 225.334 171.52 224.38C172.964 223.399 174.115 222.044 174.85 220.46C175.676 218.707 176.09 216.788 176.06 214.85C176.087 212.964 175.672 211.098 174.85 209.4C174.103 207.838 172.953 206.502 171.52 205.53C170.081 204.576 168.386 204.081 166.66 204.11C164.952 204.085 163.274 204.558 161.83 205.47C160.383 206.405 159.221 207.72 158.47 209.27C157.635 211.009 157.22 212.921 157.26 214.85C157.23 216.788 157.643 218.707 158.47 220.46C159.205 222.044 160.356 223.399 161.8 224.38C163.236 225.343 164.931 225.845 166.66 225.82V225.8Z" fill="#E8EDDF"/>
<path d="M188.61 228.2C188.394 228.209 188.179 228.171 187.979 228.09C187.779 228.009 187.599 227.886 187.45 227.73C187.167 227.442 187.009 227.054 187.01 226.65V203.51C187.009 203.306 187.051 203.104 187.132 202.916C187.213 202.729 187.331 202.56 187.48 202.42C187.627 202.27 187.803 202.152 187.998 202.073C188.192 201.994 188.4 201.956 188.61 201.96C188.819 201.954 189.026 201.992 189.219 202.071C189.412 202.15 189.586 202.269 189.73 202.42C189.87 202.565 189.98 202.735 190.054 202.922C190.127 203.109 190.163 203.309 190.16 203.51V211.25L189.39 211.41C189.497 210.173 189.801 208.961 190.29 207.82C190.781 206.629 191.456 205.522 192.29 204.54C193.154 203.542 194.199 202.718 195.37 202.11C196.608 201.479 197.981 201.159 199.37 201.18C199.994 201.181 200.611 201.314 201.18 201.57C201.442 201.659 201.668 201.829 201.826 202.056C201.984 202.283 202.066 202.554 202.06 202.83C202.075 203.046 202.046 203.262 201.975 203.466C201.905 203.671 201.794 203.859 201.65 204.02C201.521 204.155 201.366 204.263 201.194 204.335C201.022 204.407 200.837 204.443 200.65 204.44C200.302 204.428 199.96 204.339 199.65 204.18C199.201 203.993 198.717 203.904 198.23 203.92C197.204 203.935 196.202 204.229 195.33 204.77C194.326 205.378 193.436 206.156 192.7 207.07C191.905 208.041 191.267 209.131 190.81 210.3C190.355 211.443 190.118 212.66 190.11 213.89V226.65C190.111 226.852 190.071 227.052 189.992 227.238C189.913 227.423 189.796 227.591 189.65 227.73C189.516 227.873 189.355 227.988 189.177 228.069C188.998 228.149 188.806 228.194 188.61 228.2Z" fill="#E8EDDF"/>
<path d="M228 201.8C228.208 201.795 228.414 201.834 228.606 201.915C228.797 201.996 228.969 202.117 229.11 202.27C229.4 202.574 229.558 202.98 229.55 203.4V226.65C229.551 226.852 229.511 227.052 229.432 227.238C229.353 227.423 229.236 227.591 229.09 227.73C228.949 227.878 228.78 227.996 228.593 228.077C228.406 228.157 228.204 228.199 228 228.2C227.787 228.21 227.575 228.172 227.378 228.091C227.181 228.01 227.004 227.887 226.86 227.73C226.594 227.434 226.447 227.049 226.45 226.65V220.5L227.33 220.14C227.303 221.164 227.029 222.166 226.53 223.06C225.966 224.112 225.222 225.057 224.33 225.85C223.359 226.717 222.251 227.417 221.05 227.92C219.767 228.456 218.39 228.728 217 228.72C214.774 228.752 212.588 228.122 210.72 226.91C208.85 225.664 207.35 223.937 206.38 221.91C205.305 219.707 204.763 217.281 204.8 214.83C204.75 212.367 205.303 209.93 206.41 207.73C207.399 205.761 208.897 204.093 210.75 202.9C212.271 201.944 213.994 201.356 215.782 201.182C217.57 201.008 219.374 201.254 221.05 201.9C222.3 202.389 223.45 203.104 224.44 204.01C225.385 204.884 226.155 205.929 226.71 207.09C227.254 208.209 227.538 209.436 227.54 210.68L226.45 209.9V203.4C226.44 202.985 226.586 202.582 226.86 202.27C227.004 202.113 227.181 201.99 227.378 201.909C227.575 201.828 227.787 201.79 228 201.8ZM217.26 225.8C218.983 225.831 220.675 225.335 222.11 224.38C223.554 223.399 224.705 222.044 225.44 220.46C226.27 218.708 226.687 216.789 226.66 214.85C226.683 212.963 226.265 211.097 225.44 209.4C224.693 207.838 223.543 206.502 222.11 205.53C220.675 204.575 218.983 204.079 217.26 204.11C215.549 204.084 213.867 204.556 212.42 205.47C210.979 206.409 209.82 207.722 209.07 209.27C208.232 211.009 207.814 212.92 207.85 214.85C207.823 216.789 208.24 218.708 209.07 220.46C209.805 222.044 210.956 223.399 212.4 224.38C213.83 225.34 215.518 225.842 217.24 225.82L217.26 225.8Z" fill="#E8EDDF"/>
<path d="M267.76 192C270.245 191.852 272.688 192.697 274.55 194.35C275.394 195.206 276.049 196.229 276.473 197.354C276.897 198.479 277.08 199.68 277.01 200.88C277.019 202.319 276.701 203.742 276.08 205.04C275.462 206.323 274.504 207.413 273.31 208.19C271.97 209.04 270.426 209.513 268.84 209.56L268.59 208.56C269.856 208.559 271.116 208.741 272.33 209.1C273.537 209.453 274.661 210.041 275.64 210.83C276.635 211.645 277.437 212.669 277.99 213.83C278.608 215.184 278.909 216.662 278.87 218.15C278.908 219.738 278.597 221.315 277.96 222.77C277.405 224 276.565 225.08 275.51 225.92C274.474 226.731 273.288 227.329 272.02 227.68C270.717 228.039 269.372 228.221 268.02 228.22H254.12C253.912 228.225 253.706 228.186 253.514 228.105C253.323 228.024 253.151 227.903 253.01 227.75C252.727 227.462 252.569 227.074 252.57 226.67V193.59C252.567 193.183 252.725 192.791 253.01 192.5C253.151 192.348 253.324 192.229 253.515 192.15C253.707 192.07 253.913 192.033 254.12 192.04L267.76 192ZM267.29 195.1H255.21L255.83 194.1V208.73L255.26 207.95H267.35C268.232 207.977 269.11 207.816 269.924 207.476C270.739 207.137 271.471 206.627 272.073 205.981C272.674 205.335 273.13 204.568 273.411 203.732C273.692 202.895 273.79 202.008 273.7 201.13C273.741 200.317 273.613 199.504 273.324 198.744C273.035 197.983 272.591 197.29 272.02 196.71C270.713 195.582 269.012 195.017 267.29 195.14V195.1ZM267.71 211.1H255.57L255.83 210.74V225.57L255.52 225.1H267.76C269.755 225.174 271.718 224.583 273.34 223.42C274.82 222.3 275.56 220.52 275.56 218.08C275.638 216.62 275.257 215.172 274.47 213.94C273.765 212.92 272.752 212.153 271.58 211.75C270.334 211.329 269.025 211.126 267.71 211.15V211.1Z" fill="#E8EDDF"/>
<path d="M307 201.8C307.208 201.795 307.414 201.834 307.606 201.915C307.797 201.996 307.969 202.117 308.11 202.27C308.4 202.574 308.558 202.98 308.55 203.4V226.65C308.551 226.852 308.511 227.052 308.432 227.238C308.353 227.423 308.236 227.591 308.09 227.73C307.95 227.878 307.78 227.996 307.593 228.077C307.406 228.157 307.204 228.199 307 228.2C306.787 228.21 306.575 228.172 306.378 228.091C306.181 228.01 306.004 227.887 305.86 227.73C305.594 227.434 305.447 227.049 305.45 226.65V220.5L306.33 220.14C306.303 221.164 306.029 222.166 305.53 223.06C304.966 224.112 304.222 225.057 303.33 225.85C302.359 226.717 301.251 227.417 300.05 227.92C298.768 228.457 297.39 228.729 296 228.72C293.774 228.752 291.588 228.122 289.72 226.91C287.85 225.664 286.35 223.937 285.38 221.91C284.308 219.706 283.77 217.281 283.81 214.83C283.757 212.368 284.306 209.931 285.41 207.73C286.399 205.761 287.897 204.093 289.75 202.9C291.271 201.944 292.994 201.356 294.782 201.182C296.57 201.008 298.374 201.254 300.05 201.9C301.3 202.389 302.45 203.104 303.44 204.01C304.385 204.884 305.155 205.929 305.71 207.09C306.254 208.209 306.538 209.436 306.54 210.68L305.45 209.9V203.4C305.44 202.985 305.586 202.582 305.86 202.27C306.004 202.113 306.181 201.99 306.378 201.909C306.575 201.828 306.787 201.79 307 201.8ZM296.26 225.8C297.983 225.831 299.675 225.335 301.11 224.38C302.554 223.399 303.705 222.044 304.44 220.46C305.27 218.708 305.687 216.789 305.66 214.85C305.683 212.963 305.265 211.097 304.44 209.4C303.693 207.838 302.543 206.502 301.11 205.53C299.675 204.575 297.983 204.079 296.26 204.11C294.552 204.082 292.873 204.555 291.43 205.47C289.983 206.405 288.821 207.72 288.07 209.27C287.232 211.009 286.814 212.92 286.85 214.85C286.823 216.789 287.24 218.708 288.07 220.46C288.805 222.044 289.956 223.399 291.4 224.38C292.841 225.348 294.544 225.85 296.28 225.82L296.26 225.8Z" fill="#E8EDDF"/>
<path d="M318.23 228.2C318.014 228.209 317.799 228.171 317.599 228.09C317.399 228.009 317.219 227.886 317.07 227.73C316.928 227.588 316.816 227.42 316.741 227.235C316.665 227.049 316.628 226.85 316.63 226.65V203.51C316.628 203.306 316.667 203.105 316.746 202.917C316.825 202.73 316.942 202.56 317.09 202.42C317.239 202.27 317.416 202.151 317.612 202.072C317.808 201.993 318.019 201.955 318.23 201.96C318.437 201.953 318.643 201.99 318.835 202.07C319.026 202.149 319.199 202.268 319.34 202.42C319.625 202.711 319.783 203.103 319.78 203.51V211.25L319.01 211.41C319.117 210.173 319.421 208.961 319.91 207.82C320.401 206.629 321.076 205.522 321.91 204.54C322.77 203.543 323.812 202.718 324.98 202.11C326.218 201.48 327.591 201.161 328.98 201.18C329.604 201.181 330.221 201.314 330.79 201.57C331.049 201.662 331.272 201.834 331.428 202.06C331.584 202.286 331.665 202.555 331.66 202.83C331.677 203.046 331.649 203.263 331.579 203.468C331.508 203.672 331.396 203.86 331.25 204.02C331.122 204.156 330.967 204.264 330.795 204.337C330.622 204.409 330.437 204.444 330.25 204.44C329.902 204.427 329.56 204.338 329.25 204.18C328.801 203.991 328.317 203.902 327.83 203.92C326.807 203.936 325.808 204.229 324.94 204.77C323.933 205.378 323.04 206.156 322.3 207.07C321.504 208.039 320.869 209.13 320.42 210.3C319.96 211.441 319.723 212.66 319.72 213.89V226.65C319.721 226.852 319.681 227.052 319.602 227.238C319.523 227.423 319.406 227.591 319.26 227.73C318.991 228.014 318.621 228.183 318.23 228.2Z" fill="#E8EDDF"/>
<path d="M349.12 201.18C351.325 201.141 353.492 201.753 355.35 202.94C357.186 204.143 358.673 205.809 359.66 207.77C360.764 209.971 361.313 212.408 361.26 214.87C361.3 217.324 360.751 219.752 359.66 221.95C358.68 223.971 357.183 225.696 355.32 226.95C353.5 228.153 351.361 228.784 349.18 228.76C348.009 228.767 346.846 228.574 345.74 228.19C343.639 227.46 341.785 226.153 340.39 224.42C339.718 223.586 339.162 222.664 338.74 221.68L339.67 220.96V226.79C339.679 227.213 339.521 227.623 339.23 227.93C339.089 228.082 338.916 228.201 338.725 228.28C338.533 228.36 338.327 228.397 338.12 228.39C337.909 228.394 337.699 228.355 337.503 228.276C337.307 228.198 337.129 228.08 336.98 227.93C336.83 227.781 336.712 227.603 336.633 227.407C336.554 227.211 336.516 227.001 336.52 226.79V191.57C336.517 191.37 336.555 191.171 336.631 190.985C336.706 190.8 336.818 190.632 336.96 190.49C337.109 190.334 337.289 190.211 337.489 190.13C337.689 190.049 337.904 190.011 338.12 190.02C338.328 190.015 338.534 190.054 338.726 190.135C338.917 190.216 339.089 190.337 339.23 190.49C339.513 190.778 339.671 191.166 339.67 191.57V208.88L338.95 208.46C339.284 207.409 339.798 206.425 340.47 205.55C341.135 204.671 341.927 203.896 342.82 203.25C343.718 202.59 344.713 202.074 345.77 201.72C346.849 201.357 347.981 201.175 349.12 201.18ZM348.86 204.13C347.129 204.094 345.425 204.567 343.96 205.49C342.525 206.43 341.373 207.744 340.63 209.29C339.792 211.029 339.374 212.94 339.41 214.87C339.383 216.809 339.8 218.728 340.63 220.48C341.373 222.071 342.539 223.427 344 224.4C345.451 225.36 347.16 225.855 348.9 225.82C350.623 225.852 352.314 225.349 353.74 224.38C355.17 223.358 356.308 221.979 357.04 220.38C357.866 218.648 358.283 216.749 358.26 214.83C358.296 212.9 357.878 210.989 357.04 209.25C356.298 207.712 355.159 206.4 353.74 205.45C352.281 204.535 350.582 204.075 348.86 204.13Z" fill="#E8EDDF"/>
<path d="M392.47 215C392.509 217.46 391.92 219.89 390.76 222.06C389.913 223.577 388.771 224.909 387.403 225.979C386.034 227.049 384.466 227.835 382.789 228.291C381.113 228.748 379.363 228.865 377.641 228.636C375.918 228.408 374.259 227.838 372.76 226.96C370.781 225.78 369.157 224.087 368.06 222.06C366.923 219.878 366.33 217.455 366.33 214.995C366.33 212.535 366.923 210.112 368.06 207.93C369.168 205.909 370.789 204.215 372.76 203.02C374.785 201.834 377.089 201.209 379.435 201.209C381.781 201.209 384.085 201.834 386.11 203.02C388.069 204.214 389.674 205.909 390.76 207.93C391.927 210.101 392.516 212.536 392.47 215ZM389.37 215C389.406 213.056 388.963 211.133 388.08 209.4C387.269 207.821 386.046 206.49 384.54 205.55C382.993 204.64 381.23 204.16 379.435 204.16C377.64 204.16 375.877 204.64 374.33 205.55C372.811 206.49 371.571 207.819 370.74 209.4C369.841 211.128 369.391 213.053 369.43 215C369.386 216.941 369.837 218.861 370.74 220.58C371.578 222.156 372.816 223.484 374.33 224.43C375.871 225.359 377.636 225.849 379.435 225.849C381.234 225.849 382.999 225.359 384.54 224.43C386.041 223.483 387.262 222.155 388.08 220.58C388.967 218.856 389.411 216.938 389.37 215Z" fill="#E8EDDF"/>
<path d="M397.58 224C397.322 223.65 397.185 223.225 397.19 222.79C397.198 222.58 397.262 222.376 397.377 222.2C397.491 222.024 397.651 221.882 397.84 221.79C397.971 221.664 398.13 221.569 398.303 221.514C398.476 221.458 398.66 221.443 398.84 221.47C399.224 221.521 399.578 221.705 399.84 221.99C400.757 223.187 401.911 224.181 403.23 224.91C404.681 225.681 406.307 226.064 407.95 226.02C408.928 226.02 409.898 225.854 410.82 225.53C411.716 225.233 412.524 224.718 413.17 224.03C413.802 223.33 414.135 222.412 414.1 221.47C414.122 221.005 414.051 220.539 413.892 220.101C413.732 219.664 413.487 219.262 413.17 218.92C412.489 218.239 411.671 217.71 410.77 217.37C409.736 216.96 408.673 216.625 407.59 216.37C406.42 216.06 405.29 215.71 404.21 215.31C403.173 214.946 402.19 214.441 401.29 213.81C400.472 213.235 399.789 212.487 399.29 211.62C398.764 210.655 398.505 209.568 398.54 208.47C398.517 207.103 398.923 205.764 399.7 204.64C400.523 203.503 401.639 202.611 402.93 202.06C404.379 201.425 405.948 201.108 407.53 201.13C408.487 201.136 409.439 201.25 410.37 201.47C411.397 201.7 412.387 202.074 413.31 202.58C414.303 203.112 415.183 203.832 415.9 204.7C416.045 204.834 416.16 204.997 416.239 205.177C416.318 205.358 416.359 205.553 416.36 205.75C416.354 205.961 416.305 206.169 416.218 206.361C416.13 206.554 416.005 206.727 415.85 206.87C415.562 207.082 415.206 207.181 414.85 207.15C414.677 207.145 414.508 207.102 414.353 207.027C414.198 206.951 414.06 206.843 413.95 206.71C413.129 205.787 412.101 205.071 410.95 204.62C409.785 204.147 408.538 203.909 407.28 203.92C406.323 203.915 405.373 204.074 404.47 204.39C403.627 204.677 402.87 205.172 402.27 205.83C401.665 206.55 401.351 207.47 401.39 208.41C401.425 209.324 401.804 210.192 402.45 210.84C403.182 211.52 404.042 212.047 404.98 212.39C406.135 212.844 407.317 213.225 408.52 213.53C409.597 213.806 410.659 214.14 411.7 214.53C412.664 214.892 413.573 215.387 414.4 216C415.17 216.572 415.805 217.306 416.26 218.15C416.754 219.16 416.991 220.276 416.95 221.4C416.982 222.814 416.539 224.198 415.69 225.33C414.804 226.459 413.634 227.332 412.3 227.86C410.806 228.459 409.209 228.758 407.6 228.74C405.746 228.738 403.91 228.367 402.2 227.65C400.37 226.853 398.779 225.596 397.58 224Z" fill="#E8EDDF"/>
<path d="M445.37 201.8C445.578 201.795 445.784 201.835 445.975 201.916C446.167 201.997 446.339 202.118 446.48 202.27C446.77 202.574 446.928 202.98 446.92 203.4V226.65C446.905 227.056 446.737 227.442 446.45 227.73C446.162 228.017 445.776 228.185 445.37 228.2C445.157 228.21 444.945 228.173 444.748 228.092C444.551 228.011 444.374 227.887 444.23 227.73C443.959 227.436 443.812 227.049 443.82 226.65V220.5L444.7 220.14C444.673 221.164 444.399 222.166 443.9 223.06C443.336 224.112 442.592 225.057 441.7 225.85C440.729 226.717 439.621 227.417 438.42 227.92C437.134 228.457 435.753 228.729 434.36 228.72C432.137 228.751 429.955 228.121 428.09 226.91C426.217 225.667 424.717 223.939 423.75 221.91C422.675 219.707 422.133 217.281 422.17 214.83C422.122 212.369 422.671 209.933 423.77 207.73C424.765 205.765 426.263 204.099 428.11 202.9C429.945 201.727 432.082 201.115 434.26 201.14C435.684 201.128 437.097 201.393 438.42 201.92C439.668 202.406 440.815 203.122 441.8 204.03C442.748 204.903 443.521 205.949 444.08 207.11C444.621 208.229 444.901 209.457 444.9 210.7L443.82 209.92V203.4C443.806 202.985 443.953 202.58 444.23 202.27C444.374 202.113 444.551 201.989 444.748 201.908C444.945 201.827 445.157 201.79 445.37 201.8ZM434.62 225.8C436.347 225.832 438.042 225.337 439.48 224.38C440.924 223.399 442.075 222.044 442.81 220.46C443.636 218.707 444.05 216.788 444.02 214.85C444.047 212.964 443.632 211.098 442.81 209.4C442.063 207.838 440.913 206.502 439.48 205.53C438.042 204.573 436.347 204.078 434.62 204.11C432.912 204.085 431.234 204.558 429.79 205.47C428.343 206.405 427.181 207.72 426.43 209.27C425.595 211.009 425.18 212.921 425.22 214.85C425.19 216.788 425.604 218.707 426.43 220.46C427.166 222.046 428.32 223.402 429.77 224.38C431.203 225.342 432.894 225.845 434.62 225.82V225.8Z" fill="#E8EDDF"/>
<path d="M123.73 239.06C123.821 239.057 123.912 239.073 123.997 239.107C124.082 239.141 124.159 239.191 124.224 239.256C124.289 239.321 124.339 239.398 124.373 239.483C124.407 239.568 124.423 239.659 124.42 239.75V249.32C124.434 250.407 124.154 251.478 123.61 252.42C123.085 253.328 122.338 254.088 121.44 254.63C120.511 255.179 119.449 255.463 118.37 255.45C117.285 255.461 116.217 255.178 115.28 254.63C114.377 254.092 113.626 253.331 113.1 252.42C112.556 251.478 112.277 250.407 112.29 249.32V239.75C112.286 239.568 112.355 239.392 112.48 239.26C112.554 239.192 112.641 239.139 112.735 239.105C112.829 239.071 112.93 239.055 113.03 239.06C113.21 239.062 113.382 239.133 113.51 239.26C113.577 239.323 113.63 239.399 113.666 239.483C113.702 239.568 113.72 239.658 113.72 239.75V249.32C113.705 250.164 113.926 250.996 114.36 251.72C114.772 252.42 115.353 253.004 116.05 253.42C116.753 253.839 117.556 254.061 118.375 254.061C119.194 254.061 119.997 253.839 120.7 253.42C121.403 253.005 121.991 252.421 122.41 251.72C122.847 250.997 123.072 250.165 123.06 249.32V239.75C123.057 239.57 123.121 239.395 123.24 239.26C123.303 239.195 123.38 239.143 123.464 239.109C123.548 239.074 123.639 239.058 123.73 239.06Z" fill="#E8EDDF"/>
<path d="M130.2 254.52C130.196 254.617 130.173 254.712 130.132 254.799C130.091 254.887 130.032 254.966 129.96 255.03C129.895 255.097 129.817 255.149 129.731 255.185C129.645 255.221 129.553 255.24 129.46 255.24C129.362 255.247 129.263 255.232 129.171 255.195C129.079 255.159 128.997 255.102 128.93 255.03C128.809 254.888 128.745 254.706 128.75 254.52V239.77C128.748 239.58 128.82 239.398 128.95 239.26C129.097 239.126 129.291 239.054 129.49 239.06C129.673 239.061 129.849 239.133 129.98 239.26C130.051 239.324 130.107 239.403 130.145 239.491C130.183 239.579 130.202 239.674 130.2 239.77V254.52Z" fill="#E8EDDF"/>
<path d="M133.18 258.24C133.094 258.243 133.009 258.228 132.929 258.195C132.85 258.162 132.779 258.113 132.72 258.05C132.6 257.92 132.535 257.747 132.54 257.57C132.543 257.451 132.573 257.335 132.63 257.23L142.68 237.32C142.757 237.148 142.873 236.997 143.02 236.88C143.151 236.805 143.299 236.767 143.45 236.77C143.599 236.777 143.741 236.837 143.85 236.94C143.914 236.996 143.965 237.065 143.999 237.143C144.034 237.221 144.051 237.305 144.05 237.39C144.049 237.535 144.018 237.678 143.96 237.81L133.9 257.73C133.81 257.873 133.703 258.004 133.58 258.12C133.463 258.203 133.323 258.245 133.18 258.24Z" fill="#E8EDDF"/>
<path d="M158 239.06C158.093 239.058 158.184 239.075 158.27 239.109C158.356 239.144 158.434 239.195 158.5 239.26C158.628 239.391 158.7 239.567 158.7 239.75V249.32C158.714 250.407 158.434 251.478 157.89 252.42C157.361 253.329 156.611 254.089 155.71 254.63C154.782 255.18 153.719 255.464 152.64 255.45C151.555 255.461 150.487 255.178 149.55 254.63C148.649 254.089 147.899 253.329 147.37 252.42C146.826 251.478 146.547 250.407 146.56 249.32V239.75C146.56 239.567 146.632 239.391 146.76 239.26C146.832 239.192 146.917 239.139 147.009 239.105C147.102 239.07 147.201 239.055 147.3 239.06C147.391 239.059 147.481 239.076 147.566 239.11C147.65 239.144 147.727 239.195 147.791 239.259C147.855 239.323 147.906 239.4 147.94 239.484C147.974 239.569 147.991 239.659 147.99 239.75V249.32C147.98 250.164 148.201 250.994 148.63 251.72C149.042 252.423 149.628 253.008 150.33 253.42C151.025 253.844 151.825 254.066 152.64 254.06C153.464 254.069 154.275 253.847 154.98 253.42C155.679 252.999 156.265 252.416 156.69 251.72C157.124 250.996 157.346 250.164 157.33 249.32V239.75C157.326 239.568 157.395 239.392 157.52 239.26C157.581 239.194 157.656 239.143 157.738 239.108C157.821 239.074 157.91 239.057 158 239.06Z" fill="#E8EDDF"/>
<path d="M162.15 239C162.264 238.997 162.377 239.023 162.478 239.076C162.58 239.128 162.666 239.205 162.73 239.3L173.73 254.21C173.825 254.326 173.881 254.47 173.89 254.62C173.894 254.718 173.875 254.816 173.835 254.906C173.795 254.997 173.735 255.076 173.66 255.14C173.525 255.262 173.352 255.333 173.17 255.34C173.056 255.344 172.942 255.318 172.841 255.265C172.739 255.213 172.653 255.135 172.59 255.04L161.59 240.11C161.485 239.995 161.428 239.845 161.43 239.69C161.427 239.595 161.445 239.501 161.483 239.415C161.521 239.328 161.578 239.251 161.65 239.19C161.787 239.066 161.965 238.998 162.15 239ZM162.08 255.34C161.992 255.345 161.904 255.329 161.824 255.292C161.744 255.256 161.674 255.2 161.62 255.13C161.52 255.016 161.46 254.872 161.45 254.72C161.461 254.55 161.52 254.387 161.62 254.25L166.93 247.02L167.67 248.17L162.67 255.02C162.61 255.121 162.523 255.203 162.418 255.258C162.314 255.313 162.197 255.337 162.08 255.33V255.34ZM173.2 239C173.373 238.994 173.541 239.055 173.67 239.17C173.732 239.223 173.782 239.289 173.817 239.363C173.851 239.437 173.869 239.518 173.87 239.6C173.864 239.76 173.808 239.913 173.71 240.04L168.39 247.27L167.63 246.14L172.63 239.3C172.693 239.207 172.778 239.132 172.878 239.079C172.977 239.027 173.088 239 173.2 239Z" fill="#E8EDDF"/>
<path d="M192.48 238.13C192.572 238.128 192.663 238.145 192.748 238.182C192.832 238.218 192.908 238.272 192.97 238.34C193.097 238.468 193.168 238.64 193.17 238.82V254.54C193.165 254.722 193.091 254.896 192.963 255.026C192.835 255.156 192.662 255.232 192.48 255.24C192.387 255.237 192.296 255.214 192.214 255.173C192.131 255.131 192.058 255.072 192 255C191.875 254.868 191.806 254.692 191.81 254.51V251.76L192.21 251.44C192.202 251.918 192.082 252.387 191.86 252.81C191.61 253.301 191.271 253.742 190.86 254.11C190.424 254.521 189.924 254.859 189.38 255.11C188.805 255.355 188.185 255.481 187.56 255.48C186.574 255.49 185.606 255.208 184.78 254.67C183.929 254.128 183.238 253.369 182.78 252.47C182.313 251.482 182.07 250.403 182.07 249.31C182.07 248.217 182.313 247.138 182.78 246.15C183.224 245.263 183.893 244.507 184.72 243.96C185.539 243.423 186.501 243.145 187.48 243.16C188.103 243.155 188.721 243.27 189.3 243.5C189.857 243.728 190.371 244.049 190.82 244.45C191.236 244.844 191.575 245.312 191.82 245.83C192.068 246.327 192.198 246.875 192.2 247.43L191.71 247.09V238.83C191.708 238.651 191.776 238.479 191.9 238.35C191.97 238.267 192.06 238.204 192.162 238.165C192.263 238.127 192.373 238.114 192.48 238.13ZM187.67 254.13C188.444 254.147 189.204 253.927 189.85 253.5C190.49 253.062 191 252.461 191.33 251.76C191.694 250.977 191.883 250.124 191.883 249.26C191.883 248.396 191.694 247.543 191.33 246.76C190.996 246.064 190.481 245.47 189.84 245.04C189.191 244.635 188.44 244.42 187.675 244.42C186.91 244.42 186.159 244.635 185.51 245.04C184.862 245.469 184.341 246.062 184 246.76C183.63 247.537 183.445 248.389 183.46 249.25C183.447 250.11 183.632 250.962 184 251.74C184.34 252.446 184.861 253.05 185.51 253.49C186.146 253.928 186.898 254.165 187.67 254.17V254.13Z" fill="#E8EDDF"/>
<path d="M202.14 255.47C201.042 255.489 199.958 255.228 198.99 254.71C198.099 254.211 197.365 253.473 196.87 252.58C196.344 251.601 196.082 250.501 196.11 249.39C196.072 248.225 196.337 247.071 196.88 246.04C197.349 245.164 198.038 244.427 198.88 243.9C199.667 243.412 200.574 243.153 201.5 243.15C202.183 243.147 202.861 243.269 203.5 243.51C204.135 243.745 204.717 244.106 205.21 244.57C205.722 245.056 206.131 245.641 206.41 246.29C206.726 247.037 206.896 247.839 206.91 248.65C206.905 248.74 206.882 248.827 206.842 248.908C206.803 248.989 206.748 249.061 206.68 249.12C206.549 249.248 206.373 249.32 206.19 249.32H196.92L196.65 248.07H205.75L205.45 248.35V247.89C205.401 247.22 205.154 246.579 204.74 246.05C204.352 245.557 203.856 245.16 203.29 244.89C202.738 244.623 202.133 244.486 201.52 244.49C201.033 244.494 200.552 244.589 200.1 244.77C199.607 244.959 199.16 245.253 198.79 245.63C198.354 246.058 198.014 246.572 197.79 247.14C197.526 247.829 197.4 248.563 197.42 249.3C197.406 250.155 197.595 251.001 197.97 251.77C198.329 252.498 198.887 253.108 199.58 253.53C200.34 253.975 201.21 254.197 202.09 254.17C202.58 254.181 203.068 254.103 203.53 253.94C203.936 253.795 204.317 253.59 204.66 253.33C204.969 253.102 205.245 252.833 205.48 252.53C205.615 252.406 205.788 252.332 205.97 252.32C206.051 252.32 206.131 252.338 206.205 252.37C206.279 252.403 206.345 252.451 206.4 252.51C206.509 252.623 206.569 252.773 206.57 252.93C206.568 253.022 206.546 253.112 206.506 253.195C206.467 253.277 206.41 253.351 206.34 253.41C205.837 254.003 205.227 254.495 204.54 254.86C203.804 255.261 202.979 255.471 202.14 255.47Z" fill="#E8EDDF"/>
<path d="M209.19 253.36C209.071 253.206 209.011 253.015 209.02 252.82C209.024 252.73 209.053 252.643 209.102 252.567C209.151 252.492 209.219 252.431 209.3 252.39C209.359 252.34 209.428 252.303 209.502 252.281C209.576 252.259 209.653 252.251 209.73 252.26C209.903 252.278 210.064 252.36 210.18 252.49C210.591 253.024 211.109 253.467 211.7 253.79C212.348 254.136 213.075 254.309 213.81 254.29C214.249 254.29 214.685 254.216 215.1 254.07C215.499 253.935 215.859 253.705 216.15 253.4C216.427 253.086 216.574 252.678 216.56 252.26C216.578 251.838 216.431 251.425 216.15 251.11C215.842 250.807 215.474 250.572 215.07 250.42C214.609 250.233 214.134 250.082 213.65 249.97C213.13 249.83 212.65 249.67 212.14 249.49C211.675 249.328 211.234 249.102 210.83 248.82C210.453 248.562 210.141 248.22 209.92 247.82C209.682 247.389 209.564 246.902 209.58 246.41C209.571 245.8 209.753 245.202 210.1 244.7C210.47 244.19 210.971 243.79 211.55 243.54C212.181 243.267 212.862 243.128 213.55 243.13C213.981 243.133 214.41 243.184 214.83 243.28C215.287 243.384 215.727 243.549 216.14 243.77C216.585 244.029 216.978 244.368 217.3 244.77C217.366 244.831 217.419 244.906 217.455 244.988C217.491 245.071 217.51 245.16 217.51 245.25C217.506 245.343 217.484 245.434 217.444 245.518C217.405 245.602 217.349 245.678 217.28 245.74C217.158 245.836 217.005 245.883 216.85 245.87C216.771 245.867 216.694 245.848 216.624 245.814C216.553 245.779 216.49 245.73 216.44 245.67C216.078 245.267 215.63 244.949 215.13 244.74C214.606 244.529 214.045 244.424 213.48 244.43C213.055 244.429 212.633 244.496 212.23 244.63C211.846 244.757 211.502 244.981 211.23 245.28C210.959 245.604 210.819 246.018 210.84 246.44C210.855 246.846 211.023 247.232 211.31 247.52C211.642 247.824 212.029 248.062 212.45 248.22C212.968 248.417 213.495 248.587 214.03 248.73C214.51 248.849 214.984 248.993 215.45 249.16C215.878 249.316 216.282 249.532 216.65 249.8C217.005 250.062 217.293 250.405 217.49 250.8C217.71 251.255 217.816 251.755 217.8 252.26C217.814 252.891 217.613 253.508 217.23 254.01C216.836 254.517 216.315 254.91 215.72 255.15C215.049 255.416 214.332 255.549 213.61 255.54C212.782 255.542 211.962 255.375 211.2 255.05C210.394 254.671 209.701 254.089 209.19 253.36Z" fill="#E8EDDF"/>
<path d="M221.35 241.67C221.088 241.688 220.828 241.61 220.62 241.45C220.537 241.366 220.472 241.266 220.431 241.156C220.39 241.045 220.372 240.928 220.38 240.81V240.58C220.372 240.462 220.391 240.344 220.436 240.235C220.482 240.125 220.551 240.028 220.64 239.95C220.849 239.792 221.108 239.714 221.37 239.73C221.616 239.717 221.858 239.795 222.05 239.95C222.135 240.03 222.202 240.128 222.245 240.237C222.288 240.346 222.307 240.463 222.3 240.58V240.81C222.306 240.928 222.287 241.047 222.244 241.157C222.201 241.267 222.135 241.367 222.05 241.45C221.853 241.609 221.603 241.688 221.35 241.67ZM222.04 254.54C222.035 254.722 221.961 254.896 221.833 255.026C221.705 255.156 221.532 255.232 221.35 255.24C221.255 255.245 221.159 255.229 221.071 255.193C220.983 255.156 220.904 255.101 220.84 255.03C220.718 254.896 220.65 254.721 220.65 254.54V243.91C220.65 243.821 220.667 243.732 220.701 243.65C220.736 243.567 220.786 243.493 220.85 243.43C220.914 243.362 220.991 243.307 221.077 243.271C221.164 243.235 221.257 243.218 221.35 243.22C221.532 243.223 221.706 243.296 221.835 243.425C221.964 243.554 222.037 243.728 222.04 243.91V254.54Z" fill="#E8EDDF"/>
<path d="M230.57 243.15C231.221 243.145 231.866 243.267 232.47 243.51C233.026 243.732 233.543 244.043 234 244.43C234.398 244.772 234.736 245.177 235 245.63C235.231 245.996 235.358 246.417 235.37 246.85L235 246.29V244.14C234.998 243.95 235.07 243.768 235.2 243.63C235.264 243.563 235.342 243.51 235.428 243.476C235.515 243.441 235.607 243.426 235.7 243.43C235.793 243.424 235.886 243.438 235.973 243.473C236.059 243.508 236.137 243.561 236.2 243.63C236.328 243.769 236.396 243.952 236.39 244.14V254.14C236.426 255.223 236.163 256.296 235.63 257.24C235.14 258.069 234.421 258.739 233.56 259.17C232.627 259.627 231.598 259.853 230.56 259.83C229.987 259.826 229.417 259.756 228.86 259.62C228.33 259.506 227.817 259.328 227.33 259.09C226.91 258.87 226.67 258.65 226.63 258.42C226.52 258.315 226.455 258.172 226.45 258.02C226.457 257.952 226.478 257.887 226.513 257.828C226.547 257.769 226.594 257.719 226.65 257.68C226.718 257.63 226.801 257.604 226.885 257.604C226.969 257.604 227.052 257.63 227.12 257.68L227.9 258.01L228.51 258.22C228.838 258.322 229.172 258.402 229.51 258.46C229.886 258.533 230.267 258.57 230.65 258.57C231.232 258.626 231.819 258.554 232.369 258.358C232.92 258.163 233.422 257.849 233.838 257.44C234.255 257.03 234.576 256.533 234.781 255.986C234.985 255.438 235.067 254.853 235.02 254.27V252.05L235.28 252.12C235.15 252.641 234.911 253.128 234.58 253.55C234.266 253.944 233.887 254.282 233.46 254.55C233.037 254.838 232.571 255.057 232.08 255.2C231.351 255.415 230.585 255.473 229.832 255.371C229.079 255.27 228.356 255.01 227.71 254.61C226.862 254.065 226.172 253.306 225.71 252.41C225.223 251.428 224.97 250.346 224.97 249.25C224.97 248.154 225.223 247.072 225.71 246.09C226.174 245.198 226.863 244.443 227.71 243.9C228.572 243.381 229.564 243.12 230.57 243.15ZM230.73 244.47C229.93 244.456 229.142 244.671 228.46 245.09C227.787 245.509 227.241 246.104 226.88 246.81C226.498 247.584 226.306 248.437 226.32 249.3C226.308 250.162 226.5 251.016 226.88 251.79C227.24 252.504 227.786 253.109 228.46 253.54C229.141 253.963 229.929 254.181 230.73 254.17C231.524 254.185 232.305 253.969 232.98 253.55C233.645 253.124 234.187 252.531 234.55 251.83C234.945 251.046 235.144 250.178 235.13 249.3C235.146 248.425 234.947 247.56 234.55 246.78C234.189 246.083 233.647 245.495 232.98 245.08C232.303 244.668 231.523 244.457 230.73 244.47Z" fill="#E8EDDF"/>
<path d="M245.64 243.15C246.496 243.106 247.346 243.318 248.08 243.76C248.684 244.161 249.146 244.741 249.4 245.42C249.675 246.166 249.811 246.955 249.8 247.75V254.54C249.8 254.723 249.728 254.899 249.6 255.03C249.537 255.096 249.461 255.149 249.376 255.185C249.292 255.221 249.202 255.24 249.11 255.24C249.013 255.245 248.917 255.228 248.827 255.192C248.737 255.156 248.656 255.1 248.59 255.03C248.462 254.899 248.39 254.723 248.39 254.54V247.82C248.397 247.243 248.296 246.669 248.09 246.13C247.894 245.63 247.544 245.207 247.09 244.92C246.555 244.595 245.935 244.439 245.31 244.47C244.656 244.468 244.012 244.622 243.43 244.92C242.855 245.199 242.357 245.614 241.98 246.13C241.618 246.619 241.425 247.212 241.43 247.82V254.54C241.427 254.679 241.384 254.814 241.305 254.929C241.226 255.043 241.115 255.132 240.987 255.184C240.858 255.236 240.716 255.25 240.58 255.222C240.444 255.195 240.319 255.128 240.22 255.03C240.155 254.967 240.103 254.89 240.069 254.806C240.034 254.722 240.018 254.631 240.02 254.54V244.19C240.02 244.098 240.038 244.008 240.074 243.923C240.11 243.839 240.163 243.763 240.23 243.7C240.296 243.631 240.375 243.577 240.463 243.541C240.551 243.505 240.645 243.487 240.74 243.49C240.832 243.488 240.923 243.505 241.008 243.542C241.092 243.578 241.168 243.632 241.23 243.7C241.358 243.831 241.43 244.007 241.43 244.19V246.13L240.9 246.96C240.937 246.455 241.099 245.967 241.37 245.54C241.668 245.076 242.039 244.664 242.47 244.32C242.916 243.954 243.42 243.663 243.96 243.46C244.496 243.252 245.066 243.147 245.64 243.15Z" fill="#E8EDDF"/>
<path d="M261.87 250.06C261.351 250.065 260.839 249.93 260.39 249.67C259.948 249.411 259.579 249.042 259.32 248.6C259.052 248.146 258.91 247.628 258.91 247.1C258.91 246.572 259.052 246.054 259.32 245.6C259.579 245.158 259.948 244.789 260.39 244.53C260.846 244.267 261.363 244.128 261.89 244.128C262.417 244.128 262.934 244.267 263.39 244.53C263.835 244.793 264.209 245.16 264.48 245.6C264.748 246.054 264.89 246.572 264.89 247.1C264.89 247.628 264.748 248.146 264.48 248.6C264.209 249.04 263.835 249.407 263.39 249.67C262.929 249.937 262.403 250.072 261.87 250.06Z" fill="#E8EDDF"/>
<path d="M275 255.24C274.906 255.244 274.813 255.229 274.726 255.195C274.638 255.162 274.559 255.111 274.492 255.045C274.426 254.979 274.373 254.9 274.338 254.814C274.304 254.727 274.287 254.634 274.29 254.54V239.75C274.287 239.659 274.303 239.568 274.337 239.483C274.371 239.398 274.421 239.321 274.486 239.256C274.551 239.191 274.628 239.141 274.713 239.107C274.798 239.073 274.889 239.057 274.98 239.06H283.39C283.572 239.056 283.748 239.125 283.88 239.25C283.948 239.314 284.003 239.391 284.039 239.477C284.075 239.564 284.092 239.657 284.09 239.75C284.091 239.839 284.072 239.927 284.036 240.008C284 240.089 283.947 240.161 283.88 240.22C283.749 240.348 283.573 240.42 283.39 240.42H275.6L275.7 240.28V246.43L275.58 246.22H282.35C282.533 246.22 282.709 246.292 282.84 246.42C282.908 246.484 282.962 246.561 282.999 246.647C283.035 246.734 283.052 246.827 283.05 246.92C283.051 247.009 283.032 247.097 282.996 247.178C282.96 247.259 282.907 247.331 282.84 247.39C282.709 247.518 282.533 247.59 282.35 247.59H275.53L275.7 247.38V254.54C275.7 254.723 275.628 254.899 275.5 255.03C275.436 255.098 275.359 255.153 275.273 255.189C275.186 255.225 275.093 255.242 275 255.24Z" fill="#E8EDDF"/>
<path d="M287.53 255.24C287.429 255.242 287.329 255.222 287.238 255.18C287.146 255.139 287.065 255.077 287 255C286.872 254.869 286.8 254.693 286.8 254.51V244.19C286.8 244.098 286.818 244.007 286.854 243.923C286.89 243.839 286.943 243.763 287.01 243.7C287.076 243.632 287.155 243.578 287.243 243.542C287.331 243.506 287.425 243.488 287.52 243.49C287.614 243.488 287.706 243.505 287.793 243.541C287.879 243.577 287.956 243.632 288.02 243.7C288.146 243.832 288.214 244.008 288.21 244.19V247.66L287.87 247.72C287.917 247.169 288.052 246.628 288.27 246.12C288.496 245.586 288.803 245.09 289.18 244.65C289.568 244.203 290.036 243.834 290.56 243.56C291.116 243.283 291.729 243.142 292.35 243.15C292.629 243.151 292.904 243.209 293.16 243.32C293.276 243.363 293.376 243.441 293.445 243.543C293.515 243.645 293.552 243.766 293.55 243.89C293.557 243.986 293.545 244.082 293.514 244.173C293.483 244.264 293.434 244.348 293.37 244.42C293.312 244.477 293.244 244.523 293.168 244.554C293.093 244.585 293.012 244.6 292.93 244.6C292.774 244.599 292.619 244.561 292.48 244.49C292.278 244.402 292.06 244.361 291.84 244.37C291.384 244.379 290.938 244.51 290.55 244.75C290.103 245.014 289.704 245.352 289.37 245.75C289.011 246.185 288.724 246.674 288.52 247.2C288.32 247.71 288.215 248.252 288.21 248.8V254.51C288.21 254.602 288.192 254.692 288.156 254.777C288.12 254.861 288.067 254.937 288 255C287.943 255.071 287.872 255.129 287.791 255.171C287.71 255.212 287.621 255.236 287.53 255.24Z" fill="#E8EDDF"/>
<path d="M306.23 249.32C306.249 250.418 305.988 251.502 305.47 252.47C304.99 253.379 304.271 254.14 303.39 254.67C302.72 255.074 301.974 255.338 301.199 255.446C300.424 255.554 299.635 255.504 298.88 255.298C298.124 255.092 297.419 254.736 296.805 254.25C296.192 253.764 295.683 253.158 295.31 252.47C294.798 251.495 294.53 250.411 294.53 249.31C294.53 248.209 294.798 247.124 295.31 246.15C295.807 245.249 296.531 244.494 297.41 243.96C298.319 243.425 299.355 243.144 300.41 243.144C301.465 243.144 302.501 243.425 303.41 243.96C304.283 244.495 305.001 245.25 305.49 246.15C306.003 247.126 306.258 248.217 306.23 249.32ZM304.84 249.32C304.856 248.449 304.661 247.588 304.27 246.81C303.902 246.106 303.353 245.512 302.68 245.09C301.988 244.668 301.19 244.453 300.38 244.47C299.583 244.457 298.799 244.672 298.12 245.09C297.439 245.508 296.882 246.102 296.51 246.81C296.123 247.587 295.922 248.442 295.922 249.31C295.922 250.178 296.123 251.033 296.51 251.81C296.888 252.514 297.443 253.106 298.12 253.53C298.798 253.951 299.582 254.17 300.38 254.16C301.191 254.174 301.989 253.955 302.68 253.53C303.349 253.103 303.897 252.51 304.27 251.81C304.659 251.038 304.855 250.184 304.84 249.32Z" fill="#E8EDDF"/>
<path d="M314.76 243.15C315.616 243.106 316.466 243.318 317.2 243.76C317.804 244.161 318.266 244.741 318.52 245.42C318.795 246.166 318.931 246.955 318.92 247.75V254.54C318.917 254.679 318.874 254.814 318.795 254.929C318.716 255.043 318.605 255.132 318.477 255.184C318.348 255.236 318.206 255.25 318.07 255.222C317.934 255.195 317.809 255.128 317.71 255.03C317.582 254.899 317.51 254.723 317.51 254.54V247.82C317.517 247.243 317.416 246.669 317.21 246.13C317.014 245.63 316.664 245.207 316.21 244.92C315.674 244.597 315.055 244.44 314.43 244.47C313.776 244.468 313.132 244.622 312.55 244.92C311.975 245.199 311.477 245.614 311.1 246.13C310.738 246.619 310.545 247.212 310.55 247.82V254.54C310.545 254.724 310.47 254.899 310.339 255.029C310.209 255.16 310.034 255.235 309.85 255.24C309.756 255.244 309.663 255.229 309.576 255.195C309.488 255.162 309.409 255.111 309.342 255.045C309.276 254.979 309.223 254.9 309.188 254.814C309.154 254.727 309.137 254.634 309.14 254.54V244.19C309.14 244.097 309.158 244.005 309.194 243.92C309.23 243.834 309.282 243.757 309.348 243.691C309.415 243.626 309.493 243.575 309.579 243.54C309.665 243.506 309.757 243.489 309.85 243.49C309.943 243.488 310.036 243.505 310.123 243.541C310.209 243.577 310.286 243.632 310.35 243.7C310.478 243.831 310.55 244.007 310.55 244.19V246.13L310 247C310.037 246.494 310.202 246.005 310.48 245.58C310.775 245.114 311.147 244.701 311.58 244.36C312.025 243.992 312.528 243.701 313.07 243.5C313.606 243.277 314.179 243.158 314.76 243.15Z" fill="#E8EDDF"/>
<path d="M321.79 243.47H327.17C327.258 243.469 327.345 243.486 327.426 243.52C327.507 243.555 327.58 243.606 327.64 243.67C327.759 243.797 327.823 243.966 327.82 244.14C327.823 244.225 327.809 244.31 327.778 244.389C327.747 244.468 327.7 244.54 327.64 244.6C327.579 244.662 327.506 244.712 327.425 244.744C327.344 244.777 327.257 244.793 327.17 244.79H321.79C321.701 244.791 321.612 244.774 321.529 244.739C321.447 244.705 321.372 244.654 321.31 244.59C321.248 244.529 321.199 244.455 321.166 244.375C321.134 244.294 321.118 244.207 321.12 244.12C321.116 244.034 321.131 243.948 321.164 243.869C321.197 243.79 321.247 243.718 321.31 243.66C321.373 243.597 321.448 243.548 321.53 243.515C321.613 243.483 321.701 243.467 321.79 243.47ZM324.17 240.21C324.263 240.208 324.356 240.226 324.442 240.262C324.528 240.298 324.606 240.352 324.67 240.42C324.795 240.552 324.864 240.728 324.86 240.91V252.51C324.836 252.853 324.898 253.197 325.04 253.51C325.128 253.707 325.289 253.861 325.49 253.94C325.666 254.007 325.852 254.041 326.04 254.04C326.156 254.041 326.271 254.021 326.38 253.98C326.489 253.964 326.601 253.964 326.71 253.98C326.778 253.978 326.846 253.992 326.908 254.019C326.97 254.047 327.026 254.088 327.07 254.14C327.171 254.252 327.224 254.399 327.22 254.55C327.214 254.667 327.177 254.78 327.112 254.877C327.046 254.974 326.956 255.051 326.85 255.1C326.581 255.249 326.277 255.324 325.97 255.32C325.763 255.331 325.556 255.331 325.35 255.32C325.049 255.296 324.757 255.211 324.49 255.07C324.17 254.891 323.912 254.619 323.75 254.29C323.523 253.792 323.421 253.246 323.45 252.7V240.91C323.45 240.818 323.468 240.727 323.504 240.643C323.54 240.559 323.593 240.483 323.66 240.42C323.726 240.352 323.805 240.298 323.893 240.262C323.981 240.226 324.075 240.208 324.17 240.21Z" fill="#E8EDDF"/>
<path d="M330.57 248.7C330.477 248.702 330.384 248.684 330.298 248.648C330.212 248.612 330.134 248.558 330.07 248.49C329.942 248.351 329.874 248.168 329.88 247.98C329.878 247.891 329.893 247.803 329.926 247.721C329.959 247.638 330.008 247.563 330.07 247.5C330.136 247.437 330.215 247.387 330.301 247.355C330.387 247.322 330.478 247.307 330.57 247.31H335.57C335.662 247.308 335.753 247.326 335.838 247.362C335.922 247.399 335.998 247.452 336.06 247.52C336.189 247.655 336.261 247.834 336.26 248.02C336.264 248.111 336.248 248.202 336.214 248.287C336.179 248.372 336.127 248.448 336.06 248.51C335.927 248.634 335.752 248.702 335.57 248.7H330.57Z" fill="#E8EDDF"/>
<path d="M340.44 239.06H348.9C349.088 239.054 349.271 239.122 349.41 239.25C349.478 239.314 349.533 239.391 349.569 239.477C349.605 239.564 349.622 239.657 349.62 239.75C349.624 239.841 349.607 239.931 349.57 240.014C349.534 240.097 349.479 240.171 349.41 240.23C349.271 240.358 349.088 240.426 348.9 240.42H341L341.23 240.03V246.52L340.98 246.22H347.89C347.985 246.218 348.079 246.236 348.167 246.272C348.255 246.308 348.334 246.362 348.4 246.43C348.467 246.493 348.52 246.569 348.556 246.653C348.592 246.737 348.61 246.828 348.61 246.92C348.614 247.011 348.597 247.101 348.56 247.184C348.524 247.267 348.469 247.341 348.4 247.4C348.259 247.524 348.078 247.592 347.89 247.59H341L341.2 247.36V254L341.09 253.86H348.9C348.995 253.858 349.089 253.876 349.177 253.912C349.265 253.948 349.344 254.002 349.41 254.07C349.477 254.133 349.53 254.209 349.566 254.293C349.602 254.377 349.62 254.468 349.62 254.56C349.624 254.651 349.607 254.741 349.57 254.824C349.534 254.907 349.479 254.981 349.41 255.04C349.271 255.168 349.088 255.236 348.9 255.23H340.44C340.347 255.232 340.254 255.214 340.168 255.178C340.082 255.142 340.004 255.088 339.94 255.02C339.815 254.888 339.746 254.712 339.75 254.53V239.75C339.746 239.568 339.815 239.392 339.94 239.26C340.006 239.195 340.084 239.144 340.17 239.11C340.256 239.076 340.348 239.059 340.44 239.06Z" fill="#E8EDDF"/>
<path d="M358.1 243.15C358.956 243.106 359.806 243.318 360.54 243.76C361.144 244.161 361.606 244.741 361.86 245.42C362.135 246.166 362.271 246.955 362.26 247.75V254.54C362.26 254.723 362.188 254.899 362.06 255.03C361.997 255.096 361.921 255.149 361.836 255.185C361.752 255.221 361.662 255.24 361.57 255.24C361.473 255.245 361.377 255.228 361.287 255.192C361.197 255.156 361.116 255.1 361.05 255.03C360.922 254.899 360.85 254.723 360.85 254.54V247.82C360.857 247.243 360.756 246.669 360.55 246.13C360.354 245.63 360.004 245.207 359.55 244.92C359.015 244.595 358.395 244.439 357.77 244.47C357.116 244.468 356.472 244.622 355.89 244.92C355.315 245.199 354.817 245.614 354.44 246.13C354.078 246.619 353.885 247.212 353.89 247.82V254.54C353.887 254.679 353.844 254.814 353.765 254.929C353.686 255.043 353.575 255.132 353.447 255.184C353.318 255.236 353.176 255.25 353.04 255.222C352.904 255.195 352.779 255.128 352.68 255.03C352.615 254.967 352.563 254.89 352.529 254.806C352.494 254.722 352.478 254.631 352.48 254.54V244.19C352.48 244.098 352.498 244.008 352.534 243.923C352.57 243.839 352.623 243.763 352.69 243.7C352.756 243.631 352.835 243.577 352.923 243.541C353.011 243.505 353.105 243.487 353.2 243.49C353.292 243.488 353.383 243.505 353.468 243.542C353.552 243.578 353.628 243.632 353.69 243.7C353.818 243.831 353.89 244.007 353.89 244.19V246.13L353.36 246.96C353.397 246.455 353.559 245.967 353.83 245.54C354.128 245.076 354.499 244.664 354.93 244.32C355.376 243.954 355.88 243.663 356.42 243.46C356.956 243.252 357.525 243.147 358.1 243.15Z" fill="#E8EDDF"/>
<path d="M375.58 238.13C375.673 238.128 375.766 238.146 375.852 238.182C375.938 238.218 376.016 238.272 376.08 238.34C376.204 238.469 376.272 238.641 376.27 238.82V254.54C376.265 254.722 376.191 254.896 376.063 255.026C375.935 255.156 375.762 255.232 375.58 255.24C375.485 255.245 375.389 255.229 375.301 255.193C375.213 255.156 375.134 255.101 375.07 255.03C374.951 254.895 374.887 254.72 374.89 254.54V251.79L375.28 251.47C375.272 251.948 375.152 252.417 374.93 252.84C374.68 253.331 374.341 253.772 373.93 254.14C373.494 254.551 372.994 254.889 372.45 255.14C371.875 255.386 371.255 255.512 370.63 255.51C369.644 255.52 368.676 255.238 367.85 254.7C367.014 254.155 366.34 253.395 365.9 252.5C365.426 251.514 365.179 250.434 365.179 249.34C365.179 248.246 365.426 247.166 365.9 246.18C366.337 245.288 367.008 244.532 367.84 243.99C368.514 243.56 369.28 243.295 370.075 243.215C370.871 243.135 371.674 243.243 372.42 243.53C372.973 243.76 373.483 244.081 373.93 244.48C374.345 244.874 374.684 245.342 374.93 245.86C375.178 246.357 375.308 246.905 375.31 247.46L374.83 247.12V238.86C374.829 238.683 374.893 238.512 375.01 238.38C375.076 238.293 375.163 238.225 375.263 238.181C375.362 238.137 375.471 238.12 375.58 238.13ZM370.77 254.13C371.544 254.147 372.304 253.927 372.95 253.5C373.589 253.062 374.1 252.461 374.43 251.76C374.794 250.977 374.983 250.124 374.983 249.26C374.983 248.396 374.794 247.543 374.43 246.76C374.099 246.062 373.584 245.467 372.94 245.04C372.291 244.635 371.54 244.42 370.775 244.42C370.009 244.42 369.259 244.635 368.61 245.04C367.963 245.466 367.444 246.061 367.11 246.76C366.732 247.535 366.543 248.388 366.56 249.25C366.545 250.112 366.734 250.965 367.11 251.74C367.443 252.448 367.962 253.052 368.61 253.49C369.245 253.928 369.998 254.165 370.77 254.17V254.13Z" fill="#E8EDDF"/>
</g>
<defs>
<clipPath id="clip0_52_161">
<rect width="488.56" height="259.86" fill="white"/>
</clipPath>
</defs>
</svg>
