<svg xmlns="http://www.w3.org/2000/svg" viewBox="0 0 271.06 233.94"><defs><style>.cls-1{fill:#e8eddf;}.cls-2{fill:#1a1a1a;}</style></defs><g id="Camada_2" data-name="Camada 2"><g id="Pandas"><path class="cls-1" d="M106.44,120.62c-5.3-10.05-14-16.14-23.4-16.28h-.4a28.25,28.25,0,0,0-25.11,15.75A5.49,5.49,0,1,0,67.36,125a17.21,17.21,0,0,1,15.27-9.65h.25c7.6.11,12.22,7.33,13.85,10.42.11.2.18.34.22.4a5.5,5.5,0,0,0,4.74,2.71,5.42,5.42,0,0,0,2.78-.76,5.48,5.48,0,0,0,2-7.4Z"/><path class="cls-1" d="M211.3,120.62c-5.31-10.05-14.06-16.14-23.41-16.28a28.3,28.3,0,0,0-25.51,15.75,5.49,5.49,0,1,0,9.83,4.88,17.21,17.21,0,0,1,15.52-9.65c7.6.11,12.22,7.33,13.86,10.42a4.38,4.38,0,0,0,.22.4,5.48,5.48,0,0,0,4.73,2.71,5.39,5.39,0,0,0,2.78-.76,5.49,5.49,0,0,0,2-7.41Z"/><path class="cls-1" d="M240,94.73A133.11,133.11,0,0,0,220.36,67C207,52.58,191.47,42,174.77,35.66A102.75,102.75,0,0,0,138.41,29a110,110,0,0,0-41.69,8.29c-1.41.57-2.81,1.16-4.21,1.79A126.56,126.56,0,0,0,54.66,65.55,129.68,129.68,0,0,0,32.59,95.32q-1.88,3.51-3.5,7.07c-6.05,13.39-9.25,27.39-9.25,40.51a69.59,69.59,0,0,0,8.9,34.91c5.64,9.89,13.92,18.54,24.61,25.69,21.19,14.19,51.4,22,85.06,22,34.33,0,63.21-7,83.53-20.35,21.13-13.85,31.85-33.65,31.85-58.87C253.79,129.36,248.86,111.39,240,94.73ZM45.52,128.85c0-9.74,3.4-21.36,9.16-31C61.28,86.78,71,78.33,82.22,78.33a22.94,22.94,0,0,1,5.72.73c18.39,4.66,32.75,30.81,32.75,49.79,0,20.9-17.43,25.18-38.47,25.18S45.52,149.75,45.52,128.85Zm118.06,54.42c-2.83,8.82-8.89,14.46-15.5,14.46h-.26c-6.14-.14-10.23-4.88-12.51-8.59-3.21,5.37-7.88,8.59-12.87,8.59h-.26c-9.73-.23-14.46-12.35-14.66-12.87a2.54,2.54,0,1,1,4.74-1.8,7.33,7.33,0,0,0,.32.75c1,2.23,4.42,8.73,9.71,8.85h.16c4.14,0,8.12-3.88,10.34-10,.07-.17.13-.34.19-.52-8.29-1.85-14.79-11.43-14.79-16.78,0-5.93,7.76-10.74,17.34-10.74s17.34,4.81,17.34,10.74c0,5.46-6.36,15.32-14.82,16.88a2.74,2.74,0,0,1-.09,1l.26.6c1,2.24,4.43,8.73,9.71,8.85h.16c4.14,0,8.12-3.88,10.34-10q.18-.45.33-.93a2.53,2.53,0,1,1,4.82,1.55ZM187.08,154c-21,0-36.71-4.28-36.71-25.18,0-19.48,13.61-46.53,32.5-50.11a22.59,22.59,0,0,1,4.21-.41c11.2,0,21.37,8.4,28.44,19.4,6.21,9.67,10,21.35,10,31.12C225.54,149.75,208.12,154,187.08,154Z"/><path class="cls-2" d="M271.06,49.08a49.09,49.09,0,0,0-93.32-21.3,110.92,110.92,0,0,0-39.33-7.27A118.93,118.93,0,0,0,94,29.24,49.08,49.08,0,1,0,24.9,91.79c-8.63,16.3-13.5,33.9-13.5,51.11,0,58.94,57,91,127,91s123.82-28.72,123.82-87.66c0-18.43-5.26-37.63-14.64-55.32A49.06,49.06,0,0,0,271.06,49.08ZM221.94,205.15c-20.32,13.31-49.2,20.35-83.53,20.35-33.66,0-63.87-7.81-85.06-22-10.69-7.15-19-15.8-24.61-25.69a69.59,69.59,0,0,1-8.9-34.91c0-13.12,3.2-27.12,9.25-40.51q1.62-3.56,3.5-7.07A129.68,129.68,0,0,1,54.66,65.55,126.56,126.56,0,0,1,92.51,39c1.4-.63,2.8-1.22,4.21-1.79A110,110,0,0,1,138.41,29a102.75,102.75,0,0,1,36.36,6.7C191.47,42,207,52.58,220.36,67A133.11,133.11,0,0,1,240,94.73c8.85,16.66,13.78,34.63,13.78,51.55C253.79,171.5,243.07,191.3,221.94,205.15Z"/><path class="cls-2" d="M162,180.08a2.55,2.55,0,0,0-3.19,1.64q-.15.48-.33.93c-2.22,6.13-6.2,10-10.34,10h-.16c-5.28-.12-8.69-6.61-9.71-8.85l-.26-.6a2.74,2.74,0,0,0,.09-1c8.46-1.56,14.82-11.42,14.82-16.88,0-5.93-7.76-10.74-17.34-10.74s-17.34,4.81-17.34,10.74c0,5.35,6.5,14.93,14.79,16.78-.06.18-.12.35-.19.52-2.22,6.13-6.2,10-10.34,10h-.16c-5.29-.12-8.7-6.62-9.71-8.85a7.33,7.33,0,0,1-.32-.75,2.54,2.54,0,1,0-4.74,1.8c.2.52,4.93,12.64,14.66,12.87h.26c5,0,9.66-3.22,12.87-8.59,2.28,3.71,6.37,8.45,12.51,8.59h.26c6.61,0,12.67-5.64,15.5-14.46A2.53,2.53,0,0,0,162,180.08Z"/><path class="cls-2" d="M187.08,78.33a22.59,22.59,0,0,0-4.21.41c-18.89,3.58-32.5,30.63-32.5,50.11,0,20.9,15.67,25.18,36.71,25.18s38.46-4.28,38.46-25.18c0-9.77-3.81-21.45-10-31.12C208.45,86.73,198.28,78.33,187.08,78.33Zm22.24,49.76a5.39,5.39,0,0,1-2.78.76,5.48,5.48,0,0,1-4.73-2.71,4.38,4.38,0,0,1-.22-.4c-1.64-3.09-6.26-10.31-13.86-10.42A17.21,17.21,0,0,0,172.21,125a5.49,5.49,0,1,1-9.83-4.88,28.3,28.3,0,0,1,25.51-15.75c9.35.14,18.1,6.23,23.41,16.28l0,.06A5.49,5.49,0,0,1,209.32,128.09Z"/><path class="cls-2" d="M120.69,128.85c0-19-14.36-45.13-32.75-49.79a22.94,22.94,0,0,0-5.72-.73c-11.23,0-20.94,8.45-27.54,19.51-5.76,9.65-9.16,21.27-9.16,31,0,20.9,15.66,25.18,36.7,25.18S120.69,149.75,120.69,128.85Zm-16.22-.76a5.42,5.42,0,0,1-2.78.76A5.5,5.5,0,0,1,97,126.14c0-.06-.11-.2-.22-.4-1.63-3.09-6.25-10.31-13.85-10.42h-.25A17.21,17.21,0,0,0,67.36,125a5.49,5.49,0,1,1-9.83-4.88,28.25,28.25,0,0,1,25.11-15.75H83c9.35.14,18.1,6.23,23.4,16.28l0,.07A5.48,5.48,0,0,1,104.47,128.09Z"/></g></g></svg>