<svg xmlns="http://www.w3.org/2000/svg" viewBox="0 0 271.06 233.94"><g id="Camada_2" data-name="Camada 2"><g id="Pandas"><path d="M271.06,49.08a49.09,49.09,0,0,0-93.32-21.3,110.92,110.92,0,0,0-39.33-7.27A118.93,118.93,0,0,0,94,29.24,49.08,49.08,0,1,0,24.9,91.79c-8.63,16.3-13.5,33.9-13.5,51.11,0,58.94,57,91,127,91s123.82-28.72,123.82-87.66c0-18.43-5.26-37.63-14.64-55.32A49.06,49.06,0,0,0,271.06,49.08Zm-17.27,97.2c0,25.22-10.72,45-31.85,58.87-20.32,13.31-49.2,20.35-83.53,20.35-33.66,0-63.87-7.81-85.06-22-10.69-7.15-19-15.8-24.61-25.69a69.59,69.59,0,0,1-8.9-34.91c0-13.12,3.2-27.12,9.25-40.51q1.62-3.56,3.5-7.07A129.68,129.68,0,0,1,54.66,65.55,126.56,126.56,0,0,1,92.51,39c1.4-.63,2.8-1.22,4.21-1.79A110,110,0,0,1,138.41,29a102.75,102.75,0,0,1,36.36,6.7C191.47,42,207,52.58,220.36,67A133.11,133.11,0,0,1,240,94.73C248.86,111.39,253.79,129.36,253.79,146.28Z"/><path d="M162,180.08a2.55,2.55,0,0,0-3.19,1.64q-.15.48-.33.93c-2.22,6.13-6.2,10-10.34,10h-.16c-5.28-.12-8.69-6.61-9.71-8.85l-.26-.6a2.74,2.74,0,0,0,.09-1c8.46-1.56,14.82-11.42,14.82-16.88,0-5.93-7.76-10.74-17.34-10.74s-17.34,4.81-17.34,10.74c0,5.35,6.5,14.93,14.79,16.78-.06.18-.12.35-.19.52-2.22,6.13-6.2,10-10.34,10h-.16c-5.29-.12-8.7-6.62-9.71-8.85a7.33,7.33,0,0,1-.32-.75,2.54,2.54,0,1,0-4.74,1.8c.2.52,4.93,12.64,14.66,12.87h.26c5,0,9.66-3.22,12.87-8.59,2.28,3.71,6.37,8.45,12.51,8.59h.26c6.61,0,12.67-5.64,15.5-14.46A2.53,2.53,0,0,0,162,180.08Z"/><path d="M187.08,78.33a22.59,22.59,0,0,0-4.21.41c-18.89,3.58-32.5,30.63-32.5,50.11,0,20.9,15.67,25.18,36.71,25.18s38.46-4.28,38.46-25.18c0-9.77-3.81-21.45-10-31.12C208.45,86.73,198.28,78.33,187.08,78.33Zm22.24,49.76a5.39,5.39,0,0,1-2.78.76,5.48,5.48,0,0,1-4.73-2.71,4.38,4.38,0,0,1-.22-.4c-1.64-3.09-6.26-10.31-13.86-10.42A17.21,17.21,0,0,0,172.21,125a5.49,5.49,0,1,1-9.83-4.88,28.3,28.3,0,0,1,25.51-15.75c9.35.14,18.1,6.23,23.41,16.28l0,.06A5.49,5.49,0,0,1,209.32,128.09Z"/><path d="M120.69,128.85c0-19-14.36-45.13-32.75-49.79a22.94,22.94,0,0,0-5.72-.73c-11.23,0-20.94,8.45-27.54,19.51-5.76,9.65-9.16,21.27-9.16,31,0,20.9,15.66,25.18,36.7,25.18S120.69,149.75,120.69,128.85Zm-16.22-.76a5.42,5.42,0,0,1-2.78.76A5.5,5.5,0,0,1,97,126.14c0-.06-.11-.2-.22-.4-1.63-3.09-6.25-10.31-13.85-10.42h-.25A17.21,17.21,0,0,0,67.36,125a5.49,5.49,0,1,1-9.83-4.88,28.25,28.25,0,0,1,25.11-15.75H83c9.35.14,18.1,6.23,23.4,16.28l0,.07A5.48,5.48,0,0,1,104.47,128.09Z"/></g></g></svg>